<svg width="29" height="32" viewBox="0 0 29 32" fill="none" xmlns="http://www.w3.org/2000/svg">
<g clip-path="url(#clip0_206_422)">
<path fill-rule="evenodd" clip-rule="evenodd" d="M24.7984 0C26.6064 0 28.0784 1.472 28.0784 3.296V32L24.6384 28.96L22.7024 27.168L20.6544 25.264L21.5024 28.224H3.35837C1.55037 28.224 0.0783691 26.752 0.0783691 24.928V3.296C0.0783691 1.472 1.55037 0 3.35837 0H24.7984V0ZM18.6224 20.896C22.1584 20.784 23.5184 18.464 23.5184 18.464C23.5184 13.312 21.2144 9.136 21.2144 9.136C18.9104 7.408 16.7184 7.456 16.7184 7.456L16.4944 7.712C19.2144 8.544 20.4784 9.744 20.4784 9.744C18.8144 8.832 17.1824 8.384 15.6624 8.208C14.5104 8.08 13.4064 8.112 12.4304 8.24L12.1584 8.272C11.5984 8.32 10.2384 8.528 8.52637 9.28C7.93437 9.552 7.58237 9.744 7.58237 9.744C7.58237 9.744 8.91037 8.48 11.7904 7.648L11.6304 7.456C11.6304 7.456 9.43837 7.408 7.13437 9.136C7.13437 9.136 4.83037 13.312 4.83037 18.464C4.83037 18.464 6.17437 20.784 9.71037 20.896C9.71037 20.896 10.3024 20.176 10.7824 19.568C8.75037 18.96 7.98237 17.68 7.98237 17.68L8.43037 17.952L8.49437 18L8.55704 18.036L8.5757 18.044L8.63837 18.08C9.03837 18.304 9.43837 18.48 9.80637 18.624C10.4624 18.88 11.2464 19.136 12.1584 19.312C13.3584 19.536 14.7664 19.616 16.3024 19.328C17.0544 19.2 17.8224 18.976 18.6224 18.64C19.1824 18.432 19.8064 18.128 20.4624 17.696C20.4624 17.696 19.6624 19.008 17.5664 19.6C18.0464 20.208 18.6224 20.896 18.6224 20.896ZM11.1824 13.424C10.2704 13.424 9.55037 14.224 9.55037 15.2C9.55037 16.176 10.2864 16.976 11.1824 16.976C12.0944 16.976 12.8144 16.176 12.8144 15.2C12.8304 14.224 12.0944 13.424 11.1824 13.424ZM17.0224 13.424C16.1104 13.424 15.3904 14.224 15.3904 15.2C15.3904 16.176 16.1264 16.976 17.0224 16.976C17.9344 16.976 18.6544 16.176 18.6544 15.2C18.6544 14.224 17.9344 13.424 17.0224 13.424Z" fill="currentColor"/>
</g>
<defs>
<clipPath id="clip0_206_422">
<rect width="28.2353" height="32" fill="white"/>
</clipPath>
</defs>
</svg>
