<svg width="199" height="76" viewBox="0 0 199 76" fill="none" xmlns="http://www.w3.org/2000/svg">
<g clip-path="url(#clip0_205_514)">
<path d="M37.54 75.08C58.2728 75.08 75.08 58.2728 75.08 37.54C75.08 16.8072 58.2728 0 37.54 0C16.8072 0 0 16.8072 0 37.54C0 58.2728 16.8072 75.08 37.54 75.08Z" fill="url(#paint0_linear_205_514)"/>
<path d="M37.5402 57.13C48.3595 57.13 57.1302 48.3593 57.1302 37.54C57.1302 26.7208 48.3595 17.95 37.5402 17.95C26.7209 17.95 17.9502 26.7208 17.9502 37.54C17.9502 48.3593 26.7209 57.13 37.5402 57.13Z" fill="url(#paint1_linear_205_514)"/>
<path d="M21.4901 18.3H18.2501C17.0682 18.3 16.1101 19.2581 16.1101 20.44C16.1101 21.6219 17.0682 22.58 18.2501 22.58H21.4901C22.672 22.58 23.6301 21.6219 23.6301 20.44C23.6301 19.2581 22.672 18.3 21.4901 18.3Z" fill="white"/>
<path d="M53.5101 26.81H50.2701C49.0882 26.81 48.1301 27.7681 48.1301 28.95C48.1301 30.1319 49.0882 31.09 50.2701 31.09H53.5101C54.692 31.09 55.6501 30.1319 55.6501 28.95C55.6501 27.7681 54.692 26.81 53.5101 26.81Z" fill="white"/>
<path d="M107.07 23.84C105.831 23.3188 104.499 23.0504 103.155 23.0504C101.81 23.0504 100.479 23.3188 99.2399 23.84C98.1922 24.3213 97.3214 25.1186 96.7499 26.12C96.1528 27.2275 95.8562 28.4722 95.8899 29.73V45.35C95.8477 46.6214 96.1445 47.8812 96.7499 49C97.3271 49.9968 98.1962 50.7926 99.2399 51.28C100.479 51.8012 101.81 52.0696 103.155 52.0696C104.499 52.0696 105.831 51.8012 107.07 51.28C108.114 50.7926 108.983 49.9968 109.56 49C110.158 47.893 110.455 46.6479 110.42 45.39V29.73C110.454 28.4722 110.157 27.2275 109.56 26.12C108.988 25.1186 108.118 24.3213 107.07 23.84ZM105.52 44.73C105.534 45.1894 105.438 45.6455 105.24 46.06C105.063 46.4169 104.78 46.7103 104.43 46.9C104.037 47.1008 103.601 47.2005 103.16 47.19C102.719 47.2018 102.282 47.102 101.89 46.9C101.543 46.7097 101.263 46.4162 101.09 46.06C100.891 45.6455 100.795 45.1894 100.81 44.73V30.32C100.795 29.8671 100.892 29.4174 101.09 29.01C101.263 28.6538 101.543 28.3603 101.89 28.17C102.28 27.9632 102.718 27.8632 103.16 27.88C103.601 27.8646 104.039 27.9646 104.43 28.17C104.78 28.3597 105.063 28.6531 105.24 29.01C105.438 29.4174 105.534 29.8671 105.52 30.32V44.73Z" fill="white"/>
<path d="M126.13 23.35L119.35 51.74H124.16L125.03 47.33H130.63L131.5 51.74H136.3L129.53 23.35H126.13ZM125.92 42.8L127.83 33.13L129.74 42.8H125.92Z" fill="white"/>
<path d="M156.21 37.2C155.381 36.606 154.508 36.0745 153.6 35.61H153.53H153.46L153 35.3L152.56 35.08C151.81 34.71 151.22 34.38 150.79 34.08C150.397 33.8118 150.058 33.4727 149.79 33.08C149.504 32.6739 149.357 32.1864 149.37 31.69V29.85C149.353 29.5685 149.396 29.2867 149.496 29.023C149.596 28.7593 149.751 28.5197 149.95 28.32C150.171 28.1236 150.429 27.9731 150.709 27.877C150.989 27.7808 151.285 27.7411 151.58 27.76C151.868 27.7456 152.155 27.7935 152.423 27.9005C152.69 28.0076 152.932 28.1711 153.13 28.38C153.525 28.8553 153.726 29.4629 153.69 30.08V31.7L158.51 31.65V30C158.548 28.6953 158.267 27.4009 157.69 26.23C157.164 25.2028 156.333 24.3642 155.31 23.83C154.151 23.2595 152.871 22.9782 151.58 23.01C150.263 22.9751 148.956 23.2563 147.77 23.83C146.738 24.3523 145.895 25.1845 145.36 26.21C144.776 27.3607 144.49 28.64 144.53 29.93V31.39C144.488 32.606 144.742 33.8139 145.27 34.91C145.713 35.7986 146.345 36.58 147.12 37.2C147.964 37.843 148.868 38.4023 149.82 38.87L150 39C150.053 39.0206 150.103 39.0474 150.15 39.08L150.3 39.15C151.09 39.54 151.72 39.88 152.18 40.15C152.617 40.4086 153 40.748 153.31 41.15C153.608 41.5399 153.763 42.0197 153.75 42.51V45C153.785 45.6066 153.58 46.2027 153.18 46.66C152.967 46.8707 152.711 47.034 152.43 47.1391C152.149 47.2442 151.849 47.2888 151.55 47.27C151.242 47.2878 150.935 47.2419 150.645 47.1352C150.356 47.0285 150.092 46.8633 149.87 46.65C149.659 46.4243 149.496 46.1581 149.392 45.8676C149.287 45.5771 149.242 45.2683 149.26 44.96V43.46H144.44V45C144.402 46.3113 144.694 47.6112 145.29 48.78C145.837 49.8157 146.693 50.6548 147.74 51.18C148.932 51.7599 150.245 52.0446 151.57 52.01C152.879 52.0448 154.176 51.7599 155.35 51.18C156.386 50.6503 157.232 49.8116 157.77 48.78C158.347 47.6054 158.628 46.3079 158.59 45V42.66C158.636 41.4867 158.396 40.3198 157.89 39.26C157.491 38.4564 156.917 37.7524 156.21 37.2Z" fill="white"/>
<path d="M174.15 23.35H169.31V51.74H174.15V23.35Z" fill="white"/>
<path d="M198.3 39.26C197.893 38.4558 197.312 37.7522 196.6 37.2C195.772 36.6092 194.903 36.0779 194 35.61H193.93H193.86L193.41 35.38L192.97 35.16C192.21 34.79 191.62 34.46 191.2 34.16C190.786 33.897 190.427 33.5576 190.14 33.16C189.858 32.7527 189.714 32.2653 189.73 31.77V29.85C189.712 29.5692 189.754 29.2878 189.852 29.0242C189.95 28.7606 190.103 28.5206 190.3 28.32C190.749 27.9263 191.334 27.7251 191.93 27.76C192.218 27.7456 192.505 27.7935 192.773 27.9006C193.04 28.0076 193.282 28.1711 193.48 28.38C193.875 28.8553 194.075 29.4629 194.04 30.08V31.7L198.86 31.65V30C198.898 28.6953 198.617 27.401 198.04 26.23C197.517 25.2008 196.685 24.3615 195.66 23.83C194.501 23.2596 193.221 22.9782 191.93 23.01C190.613 22.9771 189.307 23.2582 188.12 23.83C187.092 24.3582 186.251 25.1889 185.71 26.21C185.13 27.3623 184.845 28.6405 184.88 29.93V31.39C184.822 32.634 185.069 33.8733 185.6 35C186.05 35.8868 186.684 36.6675 187.46 37.29C188.3 37.9331 189.201 38.4925 190.15 38.96L190.41 39.08L190.55 39.16L190.7 39.23C191.49 39.62 192.12 39.96 192.59 40.23C193.024 40.4924 193.407 40.8312 193.72 41.23C194.013 41.6221 194.168 42.1005 194.16 42.59V45C194.191 45.6079 193.983 46.2037 193.58 46.66C193.367 46.8712 193.111 47.0348 192.83 47.14C192.549 47.2451 192.249 47.2895 191.95 47.27C191.642 47.2878 191.334 47.2419 191.045 47.1352C190.756 47.0285 190.492 46.8633 190.27 46.65C190.062 46.4225 189.902 46.1558 189.799 45.8656C189.696 45.5754 189.652 45.2675 189.67 44.96V43.46H184.84V45C184.806 46.3109 185.098 47.6097 185.69 48.78C186.242 49.8114 187.097 50.6489 188.14 51.18C189.342 51.7601 190.666 52.0414 192 52C193.312 52.0337 194.612 51.7489 195.79 51.17C196.823 50.6398 197.665 49.8009 198.2 48.77C198.768 47.5967 199.043 46.3029 199 45V42.66C199.046 41.4867 198.806 40.3198 198.3 39.26Z" fill="white"/>
<path d="M37.54 75.09C46.4094 75.0842 54.9903 71.9391 61.7627 66.2119C68.535 60.4847 73.0614 52.5452 74.54 43.8H0.530029C2.00705 52.5478 6.53442 60.4898 13.3092 66.2175C20.084 71.9452 28.6684 75.0886 37.54 75.09Z" fill="url(#paint2_linear_205_514)"/>
<path d="M37.54 75.09C42.6467 75.0959 47.7005 74.0564 52.3904 72.0357C57.0802 70.0149 61.3068 67.0556 64.81 63.34H32.12C31.6226 63.366 31.1251 63.2904 30.6578 63.118C30.1906 62.9456 29.7633 62.6798 29.402 62.3369C29.0407 61.994 28.7531 61.5812 28.5565 61.1236C28.3599 60.6659 28.2585 60.1731 28.2585 59.675C28.2585 59.1769 28.3599 58.684 28.5565 58.2264C28.7531 57.7688 29.0407 57.3559 29.402 57.0131C29.7633 56.6702 30.1906 56.4044 30.6578 56.232C31.1251 56.0595 31.6226 55.984 32.12 56.01H42.87C43.4535 56.01 44.013 55.7782 44.4256 55.3656C44.8382 54.953 45.07 54.3935 45.07 53.81C45.07 53.2265 44.8382 52.6669 44.4256 52.2543C44.013 51.8418 43.4535 51.61 42.87 51.61H2.73999C5.54253 58.5445 10.3521 64.4841 16.5523 68.6674C22.7524 72.8507 30.0606 75.0871 37.54 75.09Z" fill="url(#paint3_linear_205_514)"/>
<path d="M32.7401 29C32.7401 28.4324 32.5146 27.8881 32.1133 27.4868C31.7119 27.0855 31.1676 26.86 30.6001 26.86H6.51006C5.9425 26.86 5.39818 26.6345 4.99685 26.2332C4.59552 25.8319 4.37006 25.2876 4.37006 24.72C4.37006 24.1524 4.59552 23.6081 4.99685 23.2068C5.39818 22.8055 5.9425 22.58 6.51006 22.58H11.5901C11.8827 22.6 12.1764 22.5597 12.4528 22.4615C12.7292 22.3633 12.9825 22.2093 13.1969 22.009C13.4113 21.8088 13.5822 21.5667 13.6991 21.2976C13.816 21.0286 13.8763 20.7383 13.8763 20.445C13.8763 20.1516 13.816 19.8614 13.6991 19.5924C13.5822 19.3233 13.4113 19.0812 13.1969 18.8809C12.9825 18.6807 12.7292 18.5267 12.4528 18.4285C12.1764 18.3303 11.8827 18.29 11.5901 18.31H5.31006C2.94988 22.2503 1.33942 26.5935 0.560059 31.12H30.5601C30.8428 31.1253 31.1237 31.0745 31.3867 30.9706C31.6496 30.8667 31.8894 30.7117 32.0921 30.5145C32.2948 30.3174 32.4564 30.0821 32.5676 29.8221C32.6789 29.5622 32.7375 29.2827 32.7401 29Z" fill="white"/>
<path d="M74.9999 35.31H74.5699C74.2915 35.3139 74.015 35.263 73.7563 35.1601C73.4976 35.0572 73.2617 34.9044 73.062 34.7103C72.6588 34.3183 72.4278 33.7823 72.4199 33.22C72.4119 32.6577 72.6277 32.1153 73.0196 31.7121C73.4116 31.3089 73.9476 31.078 74.5099 31.07C74.2593 29.6318 73.9254 28.2094 73.5099 26.81H61.2999C60.7615 26.847 60.2572 27.0869 59.8889 27.4813C59.5206 27.8758 59.3157 28.3953 59.3157 28.935C59.3157 29.4747 59.5206 29.9942 59.8889 30.3887C60.2572 30.7831 60.7615 31.023 61.2999 31.06H64.1799C64.7183 31.097 65.2226 31.3369 65.5909 31.7313C65.9592 32.1258 66.164 32.6453 66.164 33.185C66.164 33.7247 65.9592 34.2442 65.5909 34.6387C65.2226 35.0331 64.7183 35.273 64.1799 35.31H46.9999C46.4367 35.3126 45.8975 35.5382 45.5002 35.9374C45.1029 36.3365 44.8799 36.8768 44.8799 37.44C44.8799 38.0023 45.1032 38.5415 45.5008 38.9391C45.8984 39.3366 46.4376 39.56 46.9999 39.56H68.6199C68.9112 39.54 69.2035 39.5801 69.4787 39.6779C69.7538 39.7756 70.006 39.9289 70.2194 40.1281C70.4328 40.3274 70.603 40.5685 70.7193 40.8363C70.8357 41.1041 70.8957 41.393 70.8957 41.685C70.8957 41.977 70.8357 42.2659 70.7193 42.5337C70.603 42.8015 70.4328 43.0426 70.2194 43.2418C70.006 43.4411 69.7538 43.5944 69.4787 43.6921C69.2035 43.7899 68.9112 43.83 68.6199 43.81H61.2999C60.7615 43.847 60.2572 44.0869 59.8889 44.4813C59.5206 44.8758 59.3157 45.3953 59.3157 45.935C59.3157 46.4747 59.5206 46.9942 59.8889 47.3887C60.2572 47.7831 60.7615 48.023 61.2999 48.06H73.5799C74.5785 44.6425 75.0869 41.1005 75.0899 37.54C75.0899 36.79 75.0599 36.05 74.9999 35.31Z" fill="white"/>
</g>
<defs>
<linearGradient id="paint0_linear_205_514" x1="37.54" y1="-13.34" x2="37.54" y2="45.39" gradientUnits="userSpaceOnUse">
<stop stop-color="#15FFFB"/>
<stop offset="0.17" stop-color="#F9B233"/>
<stop offset="0.29" stop-color="#F38B30"/>
<stop offset="0.42" stop-color="#EE6C2E"/>
<stop offset="0.55" stop-color="#EB532C"/>
<stop offset="0.68" stop-color="#E8412B"/>
<stop offset="0.83" stop-color="#E7362A"/>
<stop offset="1" stop-color="#E6332A"/>
</linearGradient>
<linearGradient id="paint1_linear_205_514" x1="37.5402" y1="53.08" x2="37.5402" y2="30.25" gradientUnits="userSpaceOnUse">
<stop stop-color="#EE2216"/>
<stop offset="0.02" stop-color="#EE2517"/>
<stop offset="0.49" stop-color="#F47126"/>
<stop offset="0.83" stop-color="#F8A02F"/>
<stop offset="1" stop-color="#F9B233"/>
</linearGradient>
<linearGradient id="paint2_linear_205_514" x1="37.54" y1="60.62" x2="37.54" y2="45.3" gradientUnits="userSpaceOnUse">
<stop stop-color="#E6332A"/>
<stop offset="1" stop-color="#F9B233"/>
</linearGradient>
<linearGradient id="paint3_linear_205_514" x1="33.77" y1="44.32" x2="33.77" y2="72.41" gradientUnits="userSpaceOnUse">
<stop stop-color="#47E98B"/>
<stop offset="1" stop-color="#FFDE55"/>
</linearGradient>
<clipPath id="clip0_205_514">
<rect width="199" height="75.09" fill="white"/>
</clipPath>
</defs>
</svg>
