<svg width="1242" height="552" viewBox="0 0 1242 552" fill="none" xmlns="http://www.w3.org/2000/svg">
<g opacity="0.4">
<path d="M1247.76 607.923H1224.97C1211.94 608.064 1199.39 603.023 1190.08 593.91C1180.77 584.796 1175.46 572.357 1175.31 559.327C1175.17 546.298 1180.21 533.746 1189.33 524.434C1198.44 515.121 1210.88 509.81 1223.91 509.669H1236.6L1238.79 522.187C1242.8 545.479 1245.5 568.977 1246.88 592.571L1247.76 607.923ZM1212.34 543.857C1209.86 545.938 1207.94 548.601 1206.75 551.608C1205.55 554.614 1205.12 557.87 1205.5 561.083C1205.87 564.296 1207.04 567.366 1208.89 570.017C1210.74 572.668 1213.23 574.818 1216.12 576.274C1215.17 565.409 1213.87 554.545 1212.34 543.857Z" fill="#161616"/>
<path d="M346.472 745.089H14.6877L12.6211 732.748C0.989189 663.289 1.12892 592.368 13.0344 522.955L15.1601 510.732H347.358L340.568 530.158C318.616 593.374 318.346 662.1 339.8 725.486L346.472 745.089ZM39.8417 715.566H305.907C290.346 658.135 290.571 597.569 306.557 540.255H40.196C31.42 598.354 31.3006 657.432 39.8417 715.566V715.566Z" fill="#161616"/>
<path d="M1056.81 607.923H927.553L926.076 594.815C922.728 565.049 914.946 535.952 902.989 508.488L900.568 502.938L902.753 497.033C903.615 494.791 904.056 492.409 904.052 490.006C904.028 485.491 902.473 481.117 899.642 477.599C896.81 474.081 892.87 471.628 888.463 470.639L882.559 469.34L879.252 464.262C851.837 422.078 814.316 387.412 770.099 363.414C725.882 339.416 676.369 326.846 626.059 326.846C575.749 326.846 526.236 339.416 482.019 363.414C437.802 387.412 400.281 422.078 372.866 464.262L368.496 470.993H124.101C111.313 470.551 99.1954 465.159 90.3048 455.956C81.4143 446.752 76.4451 434.456 76.4451 421.66C76.4451 408.863 81.4143 396.567 90.3048 387.363C99.1954 378.16 111.313 372.768 124.101 372.326H206.236C211.303 372.049 216.071 369.841 219.56 366.157C223.049 362.472 224.993 357.59 224.993 352.516C224.993 347.441 223.049 342.56 219.56 338.875C216.071 335.19 211.303 332.982 206.236 332.706H78.399L91.7436 310.386C147.173 218.128 225.468 141.732 319.06 88.5852C412.651 35.4384 518.372 7.3386 626 7.00284C761.47 6.59189 893.304 50.8132 1001.12 132.832C1106.69 213.05 1184.1 324.688 1222.2 451.685L1228.1 470.639H1010.28C1007.7 470.639 1005.15 471.146 1002.78 472.131C1000.4 473.116 998.236 474.56 996.415 476.381C994.595 478.201 993.151 480.362 992.166 482.741C991.181 485.119 990.674 487.668 990.674 490.243C990.674 492.817 991.181 495.366 992.166 497.745C993.151 500.123 994.595 502.284 996.415 504.104C998.236 505.925 1000.4 507.369 1002.78 508.354C1005.15 509.339 1007.7 509.846 1010.28 509.846H1056.81C1069.55 510.288 1081.62 515.66 1090.48 524.831C1099.34 534.001 1104.29 546.253 1104.29 559.003C1104.29 571.753 1099.34 584.004 1090.48 593.175C1081.62 602.345 1069.55 607.718 1056.81 608.159V607.923ZM953.651 578.4H1056.81C1061.83 578.124 1066.55 575.936 1070.01 572.284C1073.47 568.632 1075.39 563.795 1075.39 558.767C1075.39 553.738 1073.47 548.901 1070.01 545.249C1066.55 541.598 1061.83 539.409 1056.81 539.133H1010.28C997.248 539.133 984.752 533.958 975.539 524.745C966.326 515.531 961.15 503.036 961.15 490.006C961.15 476.977 966.326 464.482 975.539 455.268C984.752 446.055 997.248 440.879 1010.28 440.879H1187.95C1152.66 335.462 1088.43 242.096 1002.6 171.448C916.768 100.801 812.795 55.7213 702.559 41.3599C592.323 26.9984 480.271 43.9343 379.203 90.2325C278.136 136.531 192.129 210.324 131.01 303.182H206.236C219.024 303.625 231.141 309.016 240.032 318.22C248.923 327.423 253.892 339.719 253.892 352.516C253.892 365.312 248.923 377.608 240.032 386.812C231.141 396.016 219.024 401.407 206.236 401.849H124.101C119.034 402.126 114.266 404.334 110.777 408.019C107.288 411.704 105.343 416.585 105.343 421.66C105.343 426.734 107.288 431.616 110.777 435.301C114.266 438.985 119.034 441.193 124.101 441.47H352.377C363.645 425.078 376.33 409.706 390.285 395.531C382.93 399.73 374.603 401.929 366.135 401.908H313.937C300.845 401.908 288.289 396.708 279.032 387.45C269.775 378.193 264.574 365.637 264.574 352.545C264.574 339.453 269.775 326.898 279.032 317.64C288.289 308.383 300.845 303.182 313.937 303.182H366.371C379.458 303.198 392.005 308.403 401.259 317.657C410.513 326.912 415.718 339.458 415.734 352.545C415.75 362.041 413.001 371.335 407.822 379.294C443.262 348.358 484.88 325.317 529.909 311.702C574.939 298.086 622.35 294.207 668.994 300.322C715.637 306.437 760.446 322.407 800.444 347.17C840.442 371.934 874.713 404.924 900.981 443.95C910.502 447.434 918.729 453.748 924.555 462.045C930.382 470.341 933.53 480.223 933.575 490.361C933.622 494.339 933.165 498.307 932.217 502.17C942.416 526.621 949.613 552.217 953.651 578.4V578.4ZM313.937 332.706C308.675 332.706 303.629 334.796 299.908 338.516C296.188 342.237 294.097 347.283 294.097 352.545C294.097 357.807 296.188 362.853 299.908 366.574C303.629 370.295 308.675 372.385 313.937 372.385H366.371C371.633 372.385 376.679 370.295 380.4 366.574C384.12 362.853 386.211 357.807 386.211 352.545C386.211 347.283 384.12 342.237 380.4 338.516C376.679 334.796 371.633 332.706 366.371 332.706H313.937Z" fill="#161616"/>
<path d="M936.941 745.089H315.177L311.812 735.051C288.321 665.488 288.612 590.091 312.638 520.711L316.122 510.791H513.752C518.819 510.514 523.587 508.306 527.076 504.622C530.565 500.937 532.51 496.055 532.51 490.981C532.51 485.906 530.565 481.024 527.076 477.34C523.587 473.655 518.819 471.447 513.752 471.17H333.246L348.125 448.319C378.222 402.017 419.41 363.968 467.948 337.627C516.486 311.287 570.835 297.49 626.059 297.49C681.283 297.49 735.633 311.287 784.17 337.627C832.708 363.968 873.896 402.017 903.993 448.319L915.035 465.325L915.684 463.73L919.109 471.525L923.656 478.551L922.002 478.197L930.033 496.62C943.181 526.822 951.72 558.828 955.364 591.567L957.253 607.982H778.223C773.024 607.982 768.038 610.047 764.361 613.724C760.685 617.4 758.62 622.386 758.62 627.586C758.62 632.785 760.685 637.771 764.361 641.447C768.038 645.124 773.024 647.189 778.223 647.189H957.489L955.777 663.486C953.236 687.824 948.008 711.805 940.189 734.992L936.941 745.089ZM336.611 715.566H915.271C919.087 702.847 922.046 689.886 924.128 676.772H778.223C765.194 676.772 752.698 671.596 743.485 662.383C734.272 653.17 729.096 640.674 729.096 627.645C729.096 614.615 734.272 602.12 743.485 592.907C752.698 583.694 765.194 578.518 778.223 578.518H923.774C921.151 562.472 917.201 546.672 911.964 531.28C903.855 536.761 894.295 539.701 884.507 539.724H831.838C825.215 539.953 818.615 538.847 812.429 536.47C806.244 534.094 800.6 530.497 795.834 525.894C791.069 521.29 787.279 515.774 784.69 509.674C782.101 503.575 780.767 497.016 780.767 490.39C780.767 483.764 782.101 477.206 784.69 471.106C787.279 465.006 791.069 459.49 795.834 454.887C800.6 450.283 806.244 446.686 812.429 444.31C818.615 441.934 825.215 440.827 831.838 441.056H862.247C833.926 405.481 797.936 376.76 756.964 357.039C715.991 337.317 671.093 327.103 625.621 327.16C580.149 327.217 535.277 337.543 494.354 357.366C453.431 377.19 417.513 406 389.281 441.647H513.752C526.541 442.089 538.658 447.481 547.548 456.684C556.439 465.888 561.408 478.184 561.408 490.981C561.408 503.777 556.439 516.073 547.548 525.277C538.658 534.48 526.541 539.872 513.752 540.314H337.32C319.715 597.369 319.468 658.37 336.611 715.566V715.566ZM831.838 470.521C829.145 470.374 826.451 470.777 823.92 471.706C821.388 472.635 819.073 474.071 817.115 475.925C815.157 477.779 813.597 480.013 812.531 482.489C811.466 484.966 810.916 487.635 810.916 490.331C810.916 493.028 811.466 495.696 812.531 498.173C813.597 500.65 815.157 502.883 817.115 504.737C819.073 506.591 821.388 508.027 823.92 508.956C826.451 509.885 829.145 510.288 831.838 510.141H884.271C888.309 510.084 892.234 508.807 895.533 506.478C898.831 504.149 901.348 500.877 902.753 497.092L911.02 475.658L888.464 470.698C887.086 470.398 885.681 470.24 884.271 470.226L831.838 470.521Z" fill="#161616"/>
<path d="M513.752 540.137H9.90479L12.8571 522.837C25.7448 447.729 52.4313 375.657 91.5667 310.268L95.8771 303.064H206.236C219.024 303.507 231.142 308.898 240.032 318.102C248.923 327.305 253.892 339.602 253.892 352.398C253.892 365.194 248.923 377.491 240.032 386.694C231.142 395.898 219.024 401.289 206.236 401.732H124.102C119.035 402.008 114.266 404.216 110.777 407.901C107.288 411.586 105.344 416.467 105.344 421.542C105.344 426.616 107.288 431.498 110.777 435.183C114.266 438.868 119.035 441.075 124.102 441.352H513.811C526.6 441.795 538.717 447.186 547.608 456.389C556.498 465.593 561.467 477.889 561.467 490.686C561.467 503.482 556.498 515.778 547.608 524.982C538.717 534.185 526.6 539.577 513.811 540.019L513.752 540.137ZM45.3329 510.614H513.752C518.819 510.337 523.587 508.13 527.076 504.445C530.565 500.76 532.51 495.878 532.51 490.804C532.51 485.729 530.565 480.848 527.076 477.163C523.587 473.478 518.819 471.27 513.752 470.994H124.042C111.254 470.551 99.1366 465.16 90.246 455.956C81.3554 446.753 76.3862 434.456 76.3862 421.66C76.3862 408.864 81.3554 396.567 90.246 387.364C99.1366 378.16 111.254 372.769 124.042 372.326H206.236C211.303 372.049 216.071 369.842 219.56 366.157C223.049 362.472 224.994 357.591 224.994 352.516C224.994 347.441 223.049 342.56 219.56 338.875C216.071 335.19 211.303 332.982 206.236 332.706H112.824C80.7986 387.942 58.0021 448.035 45.3329 510.614V510.614Z" fill="#161616"/>
<path d="M366.371 401.908H313.938C300.846 401.908 288.29 396.708 279.033 387.45C269.775 378.193 264.574 365.637 264.574 352.545C264.574 339.453 269.775 326.897 279.033 317.64C288.29 308.383 300.846 303.182 313.938 303.182H366.371C379.463 303.182 392.019 308.383 401.276 317.64C410.534 326.897 415.735 339.453 415.735 352.545C415.735 365.637 410.534 378.193 401.276 387.45C392.019 396.708 379.463 401.908 366.371 401.908V401.908ZM313.938 332.705C308.676 332.705 303.63 334.796 299.909 338.516C296.188 342.237 294.098 347.283 294.098 352.545C294.098 357.807 296.188 362.853 299.909 366.574C303.63 370.295 308.676 372.385 313.938 372.385H366.371C371.633 372.385 376.679 370.295 380.4 366.574C384.121 362.853 386.211 357.807 386.211 352.545C386.211 347.283 384.121 342.237 380.4 338.516C376.679 334.796 371.633 332.705 366.371 332.705H313.938Z" fill="#161616"/>
<path d="M884.272 539.547H831.838C825.216 539.776 818.615 538.669 812.43 536.293C806.244 533.917 800.601 530.32 795.835 525.717C791.069 521.113 787.279 515.597 784.69 509.497C782.102 503.398 780.768 496.839 780.768 490.213C780.768 483.587 782.102 477.029 784.69 470.929C787.279 464.829 791.069 459.313 795.835 454.71C800.601 450.106 806.244 446.509 812.43 444.133C818.615 441.757 825.216 440.65 831.838 440.879H884.272C897.344 440.926 909.866 446.144 919.104 455.393C928.342 464.642 933.545 477.17 933.576 490.243C933.545 503.309 928.34 515.832 919.1 525.071C909.861 534.311 897.338 539.516 884.272 539.547V539.547ZM831.838 470.403C829.146 470.256 826.451 470.659 823.92 471.588C821.389 472.517 819.073 473.953 817.115 475.807C815.157 477.661 813.598 479.894 812.532 482.371C811.466 484.848 810.916 487.517 810.916 490.213C810.916 492.91 811.466 495.578 812.532 498.055C813.598 500.532 815.157 502.765 817.115 504.619C819.073 506.473 821.389 507.909 823.92 508.838C826.451 509.767 829.146 510.17 831.838 510.023H884.272C888.295 509.975 892.211 508.716 895.507 506.409C898.804 504.102 901.329 500.855 902.753 497.092C903.616 494.85 904.056 492.468 904.052 490.065C904.028 485.55 902.474 481.176 899.642 477.658C896.811 474.14 892.87 471.687 888.464 470.698V470.698C887.086 470.398 885.681 470.24 884.272 470.226L831.838 470.403Z" fill="#161616"/>
<path d="M1237.25 745.089H1133.74L1131.56 715.566C1136.42 714.806 1140.82 712.246 1143.88 708.395C1146.94 704.543 1148.44 699.682 1148.08 694.775C1147.73 689.869 1145.54 685.275 1141.95 681.908C1138.37 678.54 1133.64 676.643 1128.73 676.595H778.223C765.194 676.595 752.698 671.419 743.485 662.206C734.272 652.993 729.096 640.497 729.096 627.468C729.096 614.438 734.272 601.943 743.485 592.73C752.698 583.516 765.194 578.341 778.223 578.341H1056.81C1061.83 578.065 1066.55 575.877 1070.01 572.225C1073.47 568.573 1075.39 563.736 1075.39 558.707C1075.39 553.679 1073.47 548.842 1070.01 545.19C1066.55 541.538 1061.83 539.35 1056.81 539.074H1010.28C997.248 539.074 984.753 533.898 975.539 524.685C966.326 515.472 961.151 502.977 961.151 489.947C961.151 476.918 966.326 464.422 975.539 455.209C984.753 445.996 997.248 440.82 1010.28 440.82H1219.07L1222.2 451.39C1229.1 474.527 1234.64 498.048 1238.79 521.833L1241.68 538.72L1224.56 539.133C1219.36 539.188 1214.4 541.306 1210.76 545.021C1207.12 548.736 1205.11 553.744 1205.16 558.944C1205.22 564.143 1207.33 569.107 1211.05 572.745C1214.76 576.383 1219.77 578.395 1224.97 578.341H1246.05L1246.88 592.217C1247.65 605.03 1248 617.016 1248 628.944C1247.97 663.667 1245.07 698.327 1239.32 732.571L1237.25 745.089ZM1173.84 715.566H1212.16C1216.35 686.941 1218.47 658.051 1218.48 629.121C1218.48 622.035 1218.48 614.891 1218.06 607.51C1207.25 606.061 1197.23 601.05 1189.58 593.268C1181.94 585.487 1177.1 575.379 1175.84 564.542C1174.58 553.706 1176.97 542.758 1182.63 533.43C1188.28 524.102 1196.89 516.925 1207.08 513.035C1204.13 498.745 1200.68 484.535 1196.75 470.403H1010.28C1005.08 470.403 1000.09 472.468 996.416 476.145C992.739 479.821 990.674 484.807 990.674 490.006C990.674 495.206 992.739 500.192 996.416 503.868C1000.09 507.545 1005.08 509.61 1010.28 509.61H1056.81C1069.55 510.052 1081.62 515.424 1090.48 524.594C1099.34 533.765 1104.29 546.017 1104.29 558.767C1104.29 571.516 1099.34 583.768 1090.48 592.939C1081.62 602.109 1069.55 607.481 1056.81 607.923H778.223C775.649 607.923 773.1 608.43 770.721 609.415C768.343 610.4 766.182 611.844 764.361 613.665C762.541 615.485 761.097 617.646 760.112 620.025C759.127 622.403 758.62 624.952 758.62 627.527C758.62 630.101 759.127 632.65 760.112 635.029C761.097 637.407 762.541 639.568 764.361 641.388C766.182 643.209 768.343 644.653 770.721 645.638C773.1 646.623 775.649 647.13 778.223 647.13H1128.73C1141.75 647.146 1154.24 652.327 1163.45 661.536C1172.66 670.746 1177.84 683.233 1177.85 696.257C1177.87 702.902 1176.5 709.477 1173.84 715.566Z" fill="#161616"/>
</g>
</svg>
