<svg width="155" height="96" viewBox="0 0 155 96" fill="none" xmlns="http://www.w3.org/2000/svg">
<g clip-path="url(#clip0_205_1319)">
<path d="M18.2096 37.6466H1.63657C1.18175 37.679 0.732055 37.5345 0.382311 37.2438C0.102213 36.8995 -0.0346143 36.4616 -8.45199e-05 36.0202V30.7458C-0.0390378 30.2969 0.0979553 29.8504 0.382311 29.4994C0.735485 29.2168 1.18482 29.0807 1.63657 29.1194H16.0605C16.2278 29.1313 16.3955 29.1021 16.5489 29.0345C16.7022 28.967 16.8365 28.863 16.94 28.7318C17.1422 28.4681 17.2474 28.1436 17.2383 27.8122C17.2709 27.412 17.1657 27.0128 16.94 26.6798C16.8296 26.5557 16.6944 26.4557 16.5429 26.3864C16.3915 26.317 16.2272 26.2798 16.0605 26.277L9.24623 25.327C7.37861 25.1354 5.60554 24.4153 4.13743 23.2522C2.85258 22.173 2.21016 20.3642 2.21016 17.841V13.0986C2.14608 11.9914 2.33897 10.8845 2.77393 9.8632C3.20888 8.84192 3.87426 7.93366 4.71867 7.2086C6.38591 5.8406 8.68028 5.1566 11.6018 5.1566H24.3355C24.7887 5.11591 25.2397 5.25528 25.5898 5.5442C25.8868 5.88664 26.0353 6.33205 26.0028 6.783V12.1638C26.0421 12.6104 25.905 13.0547 25.6204 13.4026C25.2692 13.6888 24.8183 13.8254 24.3661 13.7826H13.7661C13.5946 13.7727 13.4231 13.8026 13.2651 13.8699C13.1072 13.9371 12.9671 14.0399 12.856 14.1702C12.6375 14.4437 12.5261 14.7866 12.5425 15.1354C12.5288 15.4932 12.6395 15.8448 12.856 16.131C12.9652 16.2671 13.1036 16.3773 13.261 16.4535C13.4184 16.5298 13.591 16.5702 13.7661 16.5718L20.5269 17.4838C22.3966 17.6853 24.172 18.4041 25.651 19.5586C26.9588 20.6454 27.6088 22.4466 27.6088 24.9774V29.7122C27.6088 32.2759 26.7676 34.2393 25.085 35.6022C23.4025 36.9651 21.1107 37.6466 18.2096 37.6466Z" fill="#40A4FF"/>
<path d="M94.834 37.6466H65.7719C65.3225 37.6857 64.8754 37.5494 64.5253 37.2666C64.3824 37.094 64.275 36.8951 64.2094 36.6812C64.1438 36.4673 64.1212 36.2427 64.1429 36.0202V6.783C64.121 6.56164 64.1434 6.33814 64.2091 6.12548C64.2747 5.91282 64.3822 5.71524 64.5253 5.5442C64.6973 5.40136 64.8959 5.29361 65.1098 5.2271C65.3237 5.1606 65.5487 5.13664 65.7719 5.1566H72.8157C73.0389 5.13664 73.2639 5.1606 73.4778 5.2271C73.6917 5.29361 73.8903 5.40136 74.0623 5.5442C74.3483 5.8913 74.4857 6.33621 74.4447 6.783V29.1194H86.5742V21.8082C86.5315 21.3612 86.6691 20.9157 86.9566 20.5694C87.1286 20.4266 87.3272 20.3188 87.5411 20.2523C87.755 20.1858 87.98 20.1618 88.2032 20.1818H94.834C95.2872 20.1411 95.7382 20.2805 96.0882 20.5694C96.3728 20.9173 96.51 21.3616 96.4706 21.8082V36.0202C96.5153 36.2433 96.5038 36.4739 96.4374 36.6915C96.3709 36.9092 96.2515 37.1072 96.0897 37.268C95.9278 37.4289 95.7286 37.5476 95.5095 37.6136C95.2905 37.6796 95.0585 37.691 94.834 37.6466Z" fill="#40A4FF"/>
<path d="M29.0159 67.127C29.0347 68.4193 28.8277 69.705 28.4041 70.927C27.9723 72.078 27.2155 73.0808 26.2245 73.815C24.9294 74.723 23.4618 75.3591 21.9111 75.6846C19.6214 76.1848 17.2799 76.4119 14.9362 76.361C12.5874 76.4114 10.2409 76.1843 7.94599 75.6846C6.38733 75.3619 4.91162 74.7256 3.60963 73.815C2.6142 73.0852 1.8563 72.081 1.42997 70.927C1.00638 69.705 0.799363 68.4193 0.818142 67.127V51.7446C0.798742 50.4523 1.00577 49.1664 1.42997 47.9446C1.85715 46.7849 2.61444 45.7735 3.60963 45.0338C4.90621 44.109 6.38339 43.4643 7.94599 43.1414C10.2409 42.6417 12.5874 42.4146 14.9362 42.465C17.2799 42.4141 19.6214 42.6412 21.9111 43.1414C23.4657 43.4671 24.9348 44.1117 26.2245 45.0338C27.215 45.7781 27.9712 46.788 28.4041 47.9446C28.8283 49.1664 29.0353 50.4523 29.0159 51.7446V67.127ZM11.1275 65.5006C11.1192 65.7884 11.176 66.0745 11.2938 66.3375C11.4117 66.6006 11.5874 66.8341 11.8082 67.0206C12.2594 67.431 13.3378 67.6362 14.9362 67.6362C16.5346 67.6362 17.6206 67.431 18.0718 67.0206C18.2913 66.833 18.4662 66.5994 18.5839 66.3365C18.7016 66.0737 18.7592 65.7882 18.7525 65.5006V53.3406C18.7529 53.0617 18.6922 52.786 18.5746 52.5327C18.4571 52.2794 18.2855 52.0546 18.0718 51.8738C17.6206 51.471 16.5422 51.2658 14.9362 51.2658C13.3301 51.2658 12.2594 51.471 11.8082 51.8738C11.5932 52.0536 11.4208 52.2782 11.3032 52.5317C11.1855 52.7853 11.1256 53.0614 11.1275 53.3406V65.5006Z" fill="white"/>
<path d="M72.5478 75.6542H65.7718C65.5486 75.6967 65.3183 75.6843 65.1011 75.618C64.8839 75.5516 64.6863 75.4335 64.5256 75.2738C64.3649 75.1141 64.246 74.9178 64.1793 74.7019C64.1125 74.486 64.1 74.2572 64.1428 74.0354V44.7906C64.1 44.5688 64.1125 44.34 64.1793 44.1241C64.246 43.9083 64.3649 43.7119 64.5256 43.5522C64.6863 43.3925 64.8839 43.2744 65.1011 43.2081C65.3183 43.1418 65.5486 43.1293 65.7718 43.1718H73.0832C73.5083 43.1527 73.9294 43.2613 74.2916 43.4834C74.6627 43.7573 74.964 44.1139 75.1711 44.5246L79.2627 51.8738C79.368 52.0847 79.4963 52.2835 79.6451 52.4666C79.7012 52.5247 79.7691 52.5703 79.8442 52.6004C79.9193 52.6306 80 52.6445 80.081 52.6414H80.4864C80.5662 52.6449 80.6459 52.6311 80.7199 52.6009C80.7938 52.5707 80.8603 52.5249 80.9146 52.4666C81.0638 52.2821 81.1944 52.0836 81.3047 51.8738L85.3428 44.5246C85.5523 44.1132 85.8562 43.7566 86.2299 43.4834C86.5897 43.2623 87.008 43.1538 87.4306 43.1718H94.8338C95.0573 43.1298 95.2876 43.1425 95.505 43.2088C95.7224 43.2752 95.9203 43.3932 96.0814 43.5526C96.2426 43.712 96.3623 43.9081 96.4301 44.1238C96.4978 44.3395 96.5117 44.5684 96.4705 44.7906V74.0354C96.5117 74.2577 96.4978 74.4865 96.4301 74.7022C96.3623 74.918 96.2426 75.114 96.0814 75.2734C95.9203 75.4328 95.7224 75.5508 95.505 75.6172C95.2876 75.6835 95.0573 75.6962 94.8338 75.6542H87.8436C87.6202 75.6962 87.3898 75.6835 87.1724 75.6172C86.955 75.5508 86.7572 75.4328 86.596 75.2734C86.4348 75.114 86.3152 74.918 86.2474 74.7022C86.1796 74.4865 86.1657 74.2577 86.207 74.0354V58.1514L83.492 63.0838C83.2887 63.5415 82.9482 63.9258 82.5171 64.1842C82.086 64.4426 81.5851 64.5626 81.0829 64.5278H79.2703C78.7681 64.5626 78.2672 64.4426 77.8361 64.1842C77.405 63.9258 77.0646 63.5415 76.8612 63.0838L74.1845 58.1514V74.0354C74.2257 74.2577 74.2119 74.4865 74.1441 74.7022C74.0763 74.918 73.9566 75.114 73.7955 75.2734C73.6343 75.4328 73.4364 75.5508 73.219 75.6172C73.0017 75.6835 72.7713 75.6962 72.5478 75.6542Z" fill="white"/>
<path d="M101.717 75.6542C101.494 75.6962 101.263 75.6835 101.046 75.6171C100.828 75.5508 100.631 75.4328 100.469 75.2734C100.308 75.1139 100.189 74.9179 100.121 74.7022C100.053 74.4865 100.039 74.2576 100.08 74.0354V68.6622C100.04 68.4397 100.054 68.2107 100.121 67.9948C100.189 67.7789 100.309 67.5826 100.47 67.4227C100.631 67.2628 100.828 67.144 101.045 67.0766C101.263 67.0093 101.493 66.9952 101.717 67.0358H106.214V51.8358H101.717C101.494 51.8778 101.263 51.8651 101.046 51.7987C100.828 51.7324 100.631 51.6144 100.469 51.455C100.308 51.2955 100.189 51.0995 100.121 50.8838C100.053 50.6681 100.039 50.4392 100.08 50.217V44.7906C100.039 44.5683 100.053 44.3394 100.121 44.1237C100.189 43.908 100.308 43.712 100.469 43.5525C100.631 43.3931 100.828 43.2751 101.046 43.2088C101.263 43.1424 101.494 43.1297 101.717 43.1718H121.059C121.282 43.1278 121.513 43.1392 121.732 43.2048C121.95 43.2705 122.149 43.3885 122.31 43.5484C122.472 43.7082 122.592 43.9051 122.659 44.1217C122.726 44.3383 122.738 44.568 122.695 44.7906V50.255C122.738 50.4775 122.726 50.7072 122.659 50.9238C122.592 51.1404 122.472 51.3373 122.31 51.4972C122.149 51.6571 121.95 51.775 121.732 51.8407C121.513 51.9063 121.282 51.9177 121.059 51.8738H116.653V67.0738H121.059C121.283 67.0313 121.514 67.044 121.732 67.1108C121.95 67.1775 122.149 67.2962 122.31 67.4566C122.471 67.6169 122.591 67.8141 122.658 68.0308C122.725 68.2476 122.738 68.4774 122.695 68.7002V74.0734C122.738 74.2959 122.726 74.5256 122.659 74.7422C122.592 74.9588 122.472 75.1557 122.31 75.3156C122.149 75.4754 121.95 75.5934 121.732 75.6591C121.513 75.7247 121.282 75.7361 121.059 75.6922L101.717 75.6542Z" fill="white"/>
<path d="M143.826 75.6542H128.531C128.307 75.6967 128.077 75.6843 127.86 75.618C127.643 75.5516 127.445 75.4335 127.284 75.2738C127.124 75.1141 127.005 74.9178 126.938 74.7019C126.871 74.486 126.859 74.2572 126.902 74.0354V44.7906C126.859 44.5688 126.871 44.34 126.938 44.1241C127.005 43.9083 127.124 43.7119 127.284 43.5522C127.445 43.3925 127.643 43.2744 127.86 43.2081C128.077 43.1418 128.307 43.1293 128.531 43.1718H143.826C147.61 43.1718 150.414 43.9318 152.239 45.4518C154.064 46.9718 154.98 49.2898 154.985 52.4058V66.4506C154.985 69.5818 154.069 71.8973 152.239 73.397C150.409 74.8967 147.604 75.6492 143.826 75.6542ZM137.196 51.7902V67.127H142.603C142.894 67.1502 143.188 67.1143 143.465 67.0215C143.743 66.9288 143.998 66.7811 144.216 66.5874C144.598 66.1164 144.784 65.5183 144.737 64.9154V53.9638C144.788 53.3676 144.601 52.7752 144.216 52.3146C143.996 52.1261 143.739 51.9833 143.462 51.8945C143.185 51.8058 142.893 51.7729 142.603 51.7978L137.196 51.7902Z" fill="white"/>
<path d="M5.35336 92.8454C4.80888 92.8875 4.26157 92.8159 3.74658 92.6353C3.23159 92.4546 2.76031 92.169 2.36303 91.7966C1.62126 90.8833 1.26241 89.7209 1.36116 88.5514C1.2531 87.3598 1.612 86.1728 2.36303 85.2378C2.76381 84.8718 3.23617 84.5918 3.75067 84.4153C4.26516 84.2388 4.81073 84.1695 5.35336 84.2118C5.90712 84.1607 6.4655 84.2257 6.99243 84.4024C7.51937 84.5791 8.00314 84.8637 8.41252 85.2378C9.15457 86.1769 9.50749 87.3622 9.3991 88.5514C9.49662 89.7183 9.14393 90.8785 8.41252 91.7966C8.007 92.1775 7.52436 92.4682 6.99683 92.649C6.46929 92.8299 5.909 92.8968 5.35336 92.8454ZM5.35336 91.6446C5.71131 91.6756 6.07173 91.6276 6.40886 91.5041C6.74599 91.3806 7.0515 91.1846 7.30358 90.9302C7.77893 90.2315 7.99768 89.3915 7.92306 88.5514C8.00893 87.6913 7.78982 86.8284 7.30358 86.1118C7.04764 85.864 6.74094 85.6739 6.40439 85.5546C6.06784 85.4352 5.70935 85.3894 5.35336 85.4202C5.00091 85.3902 4.6461 85.4365 4.31338 85.5559C3.98067 85.6753 3.67795 85.8649 3.42609 86.1118C2.93985 86.8284 2.72074 87.6913 2.80661 88.5514C2.73198 89.3915 2.95074 90.2315 3.42609 90.9302C3.67403 91.1837 3.97555 91.3793 4.30886 91.5028C4.64216 91.6264 4.99893 91.6748 5.35336 91.6446Z" fill="white"/>
<path d="M11.4028 92.7238V86.5602H12.7106L12.7948 87.2746C13.128 87.0651 13.4816 86.8895 13.8502 86.7502C14.2425 86.5997 14.6503 86.4927 15.0662 86.431V87.5102C14.8291 87.5482 14.5614 87.6166 14.3014 87.6926C14.0414 87.7686 13.7507 87.8674 13.4984 87.9662C13.2757 88.0517 13.0608 88.1559 12.8559 88.2778V92.7238H11.4028Z" fill="white"/>
<path d="M17.3989 92.7238V87.6318H16.4583L16.5883 86.5526H18.8291V92.7238H17.3989ZM17.2842 85.2682V84.0978H18.8138V85.2682H17.2842Z" fill="white"/>
<path d="M23.655 95.0038C23.1923 95.0024 22.7301 94.9745 22.2707 94.9202C21.8701 94.8751 21.4754 94.7885 21.0929 94.6618V93.575C21.4844 93.6975 21.8863 93.784 22.2936 93.8334C22.7219 93.8924 23.1537 93.9229 23.5861 93.9246C24.0475 93.9385 24.5091 93.9028 24.9628 93.8182C25.2534 93.7498 25.3987 93.5978 25.3987 93.3546C25.4049 93.2762 25.388 93.1978 25.3499 93.129C25.3119 93.0601 25.2544 93.0038 25.1845 92.967C24.9397 92.8795 24.6793 92.8433 24.4198 92.8606H22.7143C21.59 92.8606 21.0241 92.4654 21.0241 91.675C21.0257 91.4227 21.1029 91.1766 21.2459 90.9682C21.4247 90.7332 21.6736 90.5603 21.9571 90.4742C21.633 90.3218 21.3654 90.0719 21.1923 89.7598C21.0168 89.4246 20.93 89.0506 20.94 88.673C20.9104 88.3509 20.9597 88.0265 21.0835 87.7275C21.2074 87.4284 21.4021 87.1635 21.6512 86.9554C22.2891 86.5543 23.0399 86.3678 23.7926 86.4234C24.0025 86.4243 24.212 86.4395 24.4198 86.469C24.6339 86.469 24.8098 86.5222 24.9322 86.5526H27.2265L27.1883 87.4722H26.087C26.2559 87.6098 26.383 87.7913 26.4541 87.9966C26.5386 88.212 26.5801 88.4417 26.5765 88.673C26.5859 88.9539 26.5372 89.2338 26.4332 89.4953C26.3293 89.7568 26.1724 89.9942 25.9723 90.193C25.4621 90.6088 24.81 90.813 24.1521 90.763C24.0248 90.7712 23.897 90.7712 23.7697 90.763L23.3796 90.7174C23.1339 90.7394 22.8948 90.8091 22.676 90.9226C22.5846 90.9597 22.5062 91.0228 22.4504 91.1038C22.3947 91.1849 22.3641 91.2804 22.3625 91.3786C22.3573 91.4352 22.369 91.4921 22.3962 91.5421C22.4234 91.5921 22.4649 91.6331 22.5154 91.6598C22.6832 91.725 22.8632 91.7535 23.0431 91.7434H24.7792C25.2894 91.7123 25.7954 91.8514 26.217 92.1386C26.3867 92.2781 26.5208 92.4554 26.6085 92.6561C26.6962 92.8569 26.735 93.0753 26.7218 93.2938C26.7387 93.5624 26.6751 93.83 26.539 94.0627C26.4028 94.2954 26.2003 94.4827 25.957 94.601C25.2309 94.9089 24.4432 95.0467 23.655 95.0038ZM23.762 89.889C24.1778 89.9303 24.5954 89.8312 24.9475 89.6078C25.0701 89.4775 25.1629 89.3225 25.2197 89.1533C25.2764 88.9841 25.2958 88.8047 25.2763 88.6274C25.2936 88.4478 25.2733 88.2667 25.2167 88.0954C25.1601 87.924 25.0684 87.7662 24.9475 87.6318C24.6049 87.3854 24.1824 87.2744 23.762 87.3202C23.3496 87.2862 22.9376 87.3905 22.5919 87.6166C22.461 87.7485 22.3609 87.9074 22.2988 88.0821C22.2366 88.2568 22.214 88.443 22.2325 88.6274C22.2152 88.8035 22.2371 88.9812 22.2966 89.148C22.356 89.3148 22.4516 89.4665 22.5766 89.5926C22.9258 89.8236 23.3444 89.9283 23.762 89.889Z" fill="white"/>
<path d="M29.3601 92.7238V87.6318H28.4194L28.5494 86.5526H30.7903V92.7238H29.3601ZM29.2454 85.2682V84.0978H30.775V85.2682H29.2454Z" fill="white"/>
<path d="M33.1077 92.7237V86.5602H34.4155L34.4766 87.2062C34.7833 86.9762 35.1204 86.7895 35.4785 86.6514C35.8925 86.5012 36.3303 86.4266 36.771 86.431C37.0854 86.4025 37.4024 86.4369 37.7032 86.5322C38.004 86.6275 38.2825 86.7817 38.5224 86.9857C38.9277 87.4721 39.1253 88.0968 39.073 88.7261V92.7237H37.6582V88.7946C37.6952 88.4354 37.5911 88.0759 37.3675 87.7914C37.0449 87.5661 36.6504 87.4661 36.2586 87.5102C35.9328 87.5093 35.6103 87.5739 35.3103 87.7002C35.0255 87.8208 34.766 87.9935 34.5455 88.2093V92.7237H33.1077Z" fill="white"/>
<path d="M43.0653 92.8454C42.6908 92.8486 42.3192 92.7789 41.9717 92.6401C41.6494 92.5094 41.371 92.2907 41.1686 92.0093C40.9566 91.7012 40.8494 91.3336 40.8627 90.9606C40.8532 90.6924 40.903 90.4254 41.0087 90.1785C41.1145 89.9316 41.2735 89.7108 41.4746 89.5318C42.0149 89.1308 42.6837 88.939 43.3559 88.9921H45.3444V88.7186C45.3549 88.4779 45.3077 88.2383 45.2067 88.0193C45.0965 87.8337 44.9184 87.6976 44.7096 87.6393C44.3651 87.5516 44.0097 87.5132 43.6542 87.5254C42.9548 87.5182 42.2592 87.6287 41.5969 87.8521V86.7957C41.9276 86.6681 42.2712 86.5763 42.6217 86.5221C43.049 86.4529 43.4814 86.4199 43.9142 86.4234C44.646 86.3718 45.3745 86.5614 45.9868 86.963C46.2413 87.1821 46.4394 87.4585 46.5644 87.7692C46.6895 88.0799 46.7379 88.4159 46.7057 88.7489V92.7237H45.4821L45.3979 92.1005C45.1282 92.3506 44.8073 92.5399 44.4572 92.6554C44.0072 92.7954 43.5367 92.8596 43.0653 92.8454ZM43.4477 91.8269C43.8309 91.8358 44.2116 91.7633 44.5643 91.6142C44.8586 91.4794 45.1197 91.2823 45.3291 91.0365V89.9574H43.3789C43.0563 89.9308 42.7345 90.0168 42.4688 90.2006C42.3649 90.2963 42.2852 90.4149 42.236 90.547C42.1868 90.679 42.1696 90.8207 42.1858 90.9606C42.1742 91.0944 42.1985 91.229 42.2563 91.3505C42.3141 91.472 42.4032 91.5761 42.5147 91.6521C42.8037 91.7943 43.1265 91.8548 43.4477 91.8269Z" fill="white"/>
<path d="M50.476 92.8454C50.0592 92.8767 49.6468 92.7428 49.3288 92.473C49.1802 92.3065 49.068 92.111 48.9996 91.899C48.9311 91.687 48.9078 91.4632 48.9311 91.2418V83.9458H50.3613V91.1126C50.338 91.2878 50.3847 91.4651 50.4913 91.6066C50.5436 91.6541 50.6053 91.6902 50.6725 91.7125C50.7397 91.7347 50.8109 91.7427 50.8814 91.7358C51.0853 91.7382 51.2886 91.7126 51.4856 91.6598V92.7238C51.3296 92.7826 51.1682 92.8259 51.0037 92.853C50.8278 92.8596 50.6517 92.8571 50.476 92.8454Z" fill="white"/>
<path d="M56.9233 92.7238V84.3638H58.3917L61.0608 89.7826L63.7147 84.3638H65.1831V92.7238H63.7682V86.6438L61.4738 91.2722H60.6249L58.3305 86.6438V92.7238H56.9233Z" fill="white"/>
<path d="M67.7986 92.7238V87.6318H66.8579L66.9879 86.5526H69.2288V92.7238H67.7986ZM67.6839 85.2682V84.0978H69.2135V85.2682H67.6839Z" fill="white"/>
<path d="M71.5461 92.7237V86.5602H72.8539L72.9151 87.2062C73.2217 86.9762 73.5589 86.7895 73.917 86.6514C74.331 86.5012 74.7688 86.4266 75.2095 86.431C75.5239 86.4025 75.8409 86.4369 76.1417 86.5322C76.4425 86.6275 76.721 86.7817 76.9608 86.9857C77.3661 87.4721 77.5638 88.0968 77.5115 88.7261V92.7237H76.0966V88.7946C76.1337 88.4354 76.0296 88.0759 75.806 87.7914C75.4834 87.5661 75.0889 87.4661 74.6971 87.5102C74.3714 87.5099 74.0489 87.5745 73.7487 87.7002C73.465 87.8226 73.2058 87.9951 72.9839 88.2093V92.7237H71.5461Z" fill="white"/>
<path d="M82.1306 92.8454C81.8601 92.8667 81.5881 92.831 81.3324 92.7406C81.0768 92.6503 80.8432 92.5073 80.647 92.321C80.3033 91.9199 80.1281 91.4029 80.1575 90.877V87.6546H79.2397V86.5526H80.1575V85.1238L81.5647 84.6982V86.545H83.2166L83.1249 87.647H81.5953V90.7934C81.5792 90.9307 81.5934 91.0698 81.637 91.2011C81.6806 91.3323 81.7525 91.4526 81.8477 91.5534C82.0858 91.7135 82.3717 91.7885 82.6584 91.7662C82.9185 91.763 83.1766 91.7194 83.4231 91.637V92.6402C83.0101 92.7924 82.5709 92.8621 82.1306 92.8454Z" fill="white"/>
<path d="M88.2567 92.8453C87.3523 92.9102 86.4557 92.6394 85.7406 92.0854C85.4263 91.765 85.1845 91.3816 85.0315 90.9609C84.8785 90.5401 84.8178 90.0917 84.8534 89.6458C84.8087 88.7984 85.0811 87.9646 85.6182 87.305C85.9156 87.0061 86.2748 86.7752 86.671 86.6282C87.0672 86.4812 87.4909 86.4217 87.9126 86.4538C88.3016 86.4288 88.6917 86.4834 89.0587 86.6141C89.4257 86.7448 89.7618 86.9489 90.0463 87.2138C90.2846 87.467 90.4701 87.7646 90.5921 88.0894C90.7142 88.4141 90.7704 88.7597 90.7576 89.1062V90.2538H86.2147C86.2176 90.4962 86.2788 90.7345 86.3932 90.9487C86.5076 91.1629 86.6719 91.3467 86.8725 91.485C87.3889 91.7487 87.9681 91.867 88.5474 91.8269C88.8707 91.826 89.1933 91.7955 89.511 91.7357C89.8064 91.6869 90.096 91.6079 90.3752 91.5001V92.5413C90.0669 92.6725 89.7431 92.7644 89.4116 92.8149C89.0282 92.8572 88.6419 92.8674 88.2567 92.8453ZM86.2147 89.2658H89.4804V88.8402C89.4909 88.6587 89.4644 88.4771 89.4027 88.306C89.3409 88.1349 89.2451 87.978 89.1209 87.8446C88.9568 87.7104 88.7675 87.6097 88.5641 87.5484C88.3607 87.4871 88.1471 87.4664 87.9355 87.4874C87.6901 87.4592 87.4414 87.4826 87.2056 87.5559C86.9698 87.6292 86.7521 87.7508 86.5665 87.913C86.2918 88.3083 86.1672 88.7877 86.2147 89.2658Z" fill="white"/>
<path d="M95.3616 92.8454C94.8546 92.8541 94.3515 92.7557 93.8856 92.5566C93.4533 92.3641 93.1019 92.0283 92.8914 91.6066C92.6315 91.0507 92.5108 90.4405 92.5396 89.8282C92.5187 89.1847 92.6469 88.5451 92.9143 87.9586C93.1433 87.4802 93.5108 87.0806 93.9697 86.811C94.4353 86.5476 94.9637 86.4138 95.4993 86.4234C95.8379 86.4159 96.1757 86.4595 96.5012 86.5526C96.8033 86.6426 97.0897 86.7784 97.3501 86.9554V83.9154H98.7726V92.7238H97.5566L97.4648 92.1082C97.1982 92.3527 96.8866 92.5437 96.5471 92.6706C96.1654 92.7981 95.7641 92.8573 95.3616 92.8454ZM95.744 91.7814C96.0414 91.7879 96.3369 91.7332 96.612 91.6207C96.8871 91.5082 97.1358 91.3404 97.3424 91.1278V88.0422C96.9158 87.6831 96.3718 87.4913 95.8129 87.5026C95.5547 87.4851 95.2961 87.5299 95.059 87.6331C94.822 87.7363 94.6136 87.8949 94.4515 88.0954C94.1119 88.6132 93.9508 89.2267 93.9927 89.8434C93.9319 90.3849 94.0824 90.9289 94.4133 91.3634C94.7865 91.6671 95.2629 91.8168 95.744 91.7814Z" fill="white"/>
<path d="M104.73 92.7238V84.3638H106.16V92.7238H104.73Z" fill="white"/>
<path d="M111.032 92.8454C110.523 92.8541 110.017 92.7557 109.548 92.5566C109.116 92.3641 108.765 92.0283 108.554 91.6066C108.294 91.0507 108.174 90.4405 108.202 89.8282C108.18 89.1838 108.311 88.5433 108.585 87.9586C108.813 87.4822 109.178 87.0832 109.633 86.811C110.099 86.549 110.627 86.4152 111.162 86.4234C111.501 86.4165 111.838 86.46 112.164 86.5526C112.464 86.6414 112.748 86.7774 113.005 86.9554V83.9154H114.428V92.7238H113.189L113.097 92.1082C112.833 92.3525 112.524 92.5435 112.187 92.6706C111.815 92.794 111.424 92.8531 111.032 92.8454ZM111.407 91.7814C111.704 91.7879 112 91.7332 112.275 91.6207C112.55 91.5082 112.799 91.3404 113.005 91.1278V88.0422C112.579 87.6831 112.035 87.4913 111.476 87.5026C111.218 87.4851 110.959 87.5299 110.722 87.6331C110.485 87.7363 110.276 87.8949 110.114 88.0954C109.775 88.6132 109.614 89.2267 109.656 89.8434C109.597 90.3859 109.75 90.93 110.084 91.3634C110.454 91.6674 110.928 91.8172 111.407 91.7814Z" fill="white"/>
<path d="M119.743 92.8454C118.841 92.9105 117.947 92.6396 117.234 92.0854C116.918 91.7666 116.674 91.3836 116.519 90.9626C116.365 90.5416 116.304 90.0924 116.34 89.6458C116.292 88.798 116.565 87.9632 117.104 87.305C117.401 87.0053 117.76 86.7738 118.157 86.6267C118.553 86.4797 118.977 86.4207 119.399 86.4538C119.787 86.429 120.176 86.4837 120.541 86.6144C120.907 86.7451 121.242 86.9491 121.525 87.2138C121.763 87.467 121.949 87.7646 122.071 88.0894C122.193 88.4142 122.249 88.7597 122.236 89.1062V90.2538H117.701C117.704 90.4962 117.765 90.7345 117.879 90.9487C117.994 91.1629 118.158 91.3468 118.359 91.485C118.876 91.7469 119.455 91.8651 120.034 91.827C120.359 91.8257 120.685 91.7952 121.005 91.7358C121.3 91.6859 121.59 91.607 121.869 91.5002V92.5414C121.56 92.6705 121.237 92.7623 120.905 92.815C120.52 92.857 120.131 92.8672 119.743 92.8454ZM117.701 89.2658H120.99V88.8402C121.009 88.4751 120.883 88.1172 120.638 87.8446C120.303 87.5746 119.874 87.4463 119.445 87.4874C119.199 87.4597 118.951 87.4833 118.715 87.5566C118.479 87.6299 118.262 87.7512 118.076 87.913C117.796 88.3067 117.663 88.7852 117.701 89.2658Z" fill="white"/>
<path d="M124.286 92.7238V86.5602H125.594L125.663 87.2062C125.968 86.9747 126.305 86.7878 126.664 86.6514C127.076 86.5014 127.511 86.4267 127.949 86.431C128.265 86.4024 128.583 86.4367 128.885 86.532C129.187 86.6272 129.467 86.7815 129.708 86.9858C130.108 87.4748 130.302 88.0982 130.251 88.7262V92.7238H128.844V88.7946C128.863 88.6161 128.847 88.4356 128.796 88.2634C128.745 88.0912 128.66 87.9308 128.546 87.7914C128.223 87.5662 127.829 87.4661 127.437 87.5102C126.793 87.5109 126.176 87.7619 125.716 88.2094V92.7238H124.286Z" fill="white"/>
<path d="M134.871 92.8454C134.6 92.8657 134.328 92.8296 134.073 92.7393C133.817 92.649 133.584 92.5065 133.387 92.321C133.043 91.9199 132.868 91.4029 132.897 90.877V87.6546H131.98V86.5526H132.897V85.1238L134.312 84.6982V86.545H135.964L135.873 87.647H134.343V90.7934C134.328 90.93 134.342 91.0683 134.384 91.1992C134.426 91.3302 134.496 91.4508 134.588 91.5534C134.828 91.7146 135.117 91.7897 135.406 91.7662C135.666 91.7638 135.924 91.7202 136.171 91.637V92.6402C135.756 92.7942 135.313 92.8639 134.871 92.8454Z" fill="white"/>
<path d="M138.503 92.7238V87.6318H137.555L137.685 86.5526H139.956V92.7238H138.503ZM138.381 85.2682V84.0978H139.91V85.2682H138.381Z" fill="white"/>
<path d="M144.614 92.8454C144.336 92.8719 144.056 92.8387 143.792 92.7483C143.528 92.6578 143.287 92.5121 143.084 92.321C142.744 91.918 142.569 91.4024 142.595 90.877V87.6546H141.677V86.5526H142.595V85.1238L144.01 84.6982V86.545H145.662L145.57 87.647H144.04V90.7934C144.024 90.9307 144.039 91.0698 144.082 91.2011C144.126 91.3323 144.198 91.4526 144.293 91.5534C144.53 91.7146 144.817 91.7898 145.104 91.7662C145.364 91.7645 145.622 91.7208 145.868 91.637V92.6402C145.468 92.7892 145.042 92.8589 144.614 92.8454Z" fill="white"/>
<path d="M148.407 95.0038C147.999 95.014 147.593 94.9523 147.207 94.8214V93.765C147.337 93.8153 147.473 93.851 147.612 93.8714C147.742 93.8789 147.872 93.8789 148.002 93.8714C148.227 93.8815 148.451 93.8344 148.652 93.7346C148.833 93.6383 148.986 93.4969 149.096 93.3242C149.218 93.1418 149.356 92.8986 149.509 92.6098L146.748 86.5298H148.224L150.212 91.0898L152.231 86.5298H153.723L151.199 92.3438C151.002 92.8178 150.766 93.2753 150.495 93.7118C150.278 94.0769 149.986 94.3927 149.639 94.639C149.278 94.8891 148.847 95.017 148.407 95.0038Z" fill="white"/>
<path d="M43.6847 67.013C43.6847 65.4641 42.4212 64.2086 40.8626 64.2086C39.304 64.2086 38.0405 65.4641 38.0405 67.013V72.8498C38.0405 74.3986 39.304 75.6542 40.8626 75.6542C42.4212 75.6542 43.6847 74.3986 43.6847 72.8498V67.013Z" fill="white"/>
<path d="M56.9692 5.61258C58.5278 5.61258 59.7913 4.35701 59.7913 2.80819C59.7913 1.25936 58.5278 0.00378418 56.9692 0.00378418L34.4155 0.00378418C32.8569 0.00378418 31.5934 1.25936 31.5934 2.80819C31.5934 4.35701 32.8569 5.61258 34.4155 5.61258L56.9692 5.61258Z" fill="#FFA233"/>
<path d="M53.1605 67.013C53.1605 65.4641 51.897 64.2086 50.3384 64.2086C48.7798 64.2086 47.5164 65.4641 47.5164 67.013V72.8498C47.5164 74.3986 48.7798 75.6542 50.3384 75.6542C51.897 75.6542 53.1605 74.3986 53.1605 72.8498V67.013Z" fill="white"/>
<path d="M45.7114 62.225C50.4547 62.225 54.3 58.4038 54.3 53.6902C54.3 48.9766 50.4547 45.1554 45.7114 45.1554C40.968 45.1554 37.1228 48.9766 37.1228 53.6902C37.1228 58.4038 40.968 62.225 45.7114 62.225Z" fill="#40A4FF"/>
<path d="M58.338 50.0878C60.1331 50.0878 61.5884 48.6417 61.5884 46.8578C61.5884 45.0739 60.1331 43.6278 58.338 43.6278C56.5429 43.6278 55.0876 45.0739 55.0876 46.8578C55.0876 48.6417 56.5429 50.0878 58.338 50.0878Z" fill="white"/>
<path d="M32.9318 50.0878C34.7269 50.0878 36.1821 48.6417 36.1821 46.8578C36.1821 45.0739 34.7269 43.6278 32.9318 43.6278C31.1366 43.6278 29.6814 45.0739 29.6814 46.8578C29.6814 48.6417 31.1366 50.0878 32.9318 50.0878Z" fill="white"/>
<path d="M59.7835 33.9606C59.8035 35.2529 59.5964 36.5389 59.1716 37.7606C58.7473 38.9156 57.989 39.9203 56.992 40.6486C55.6974 41.559 54.2298 42.1978 52.6786 42.5258C50.8687 43.0342 48.9907 43.2623 47.1109 43.2022C44.2914 43.2412 41.4746 43.0147 38.6982 42.5258C37.1564 42.1815 35.6999 41.5327 34.4154 40.6182C33.4225 39.8858 32.6652 38.8824 32.2357 37.7302C31.8109 36.5085 31.6039 35.2225 31.6239 33.9302V18.5782C31.6051 17.2859 31.8121 16.0001 32.2357 14.7782C32.6755 13.6336 33.4309 12.6353 34.4154 11.8978C35.712 10.9729 37.1891 10.3283 38.7517 10.0054C41.0493 9.50609 43.3983 9.27905 45.7496 9.32895C48.0908 9.27757 50.4298 9.50465 52.7168 10.0054C54.2724 10.328 55.7421 10.9729 57.0302 11.8978C58.0235 12.6393 58.7803 13.6501 59.2099 14.8086C59.6335 16.0305 59.8405 17.3163 59.8217 18.6086L59.7835 33.9606ZM41.895 32.3418C41.8899 32.6291 41.9482 32.9141 42.0658 33.1767C42.1834 33.4393 42.3574 33.6731 42.5757 33.8618C43.0269 34.2646 44.1053 34.4698 45.7113 34.4698C47.3174 34.4698 48.3881 34.2646 48.8393 33.8618C49.0588 33.6742 49.2337 33.4405 49.3514 33.1777C49.4691 32.9149 49.5267 32.6294 49.52 32.3418V20.1818C49.5235 19.9023 49.4643 19.6256 49.3465 19.3719C49.2288 19.1181 49.0555 18.8937 48.8393 18.715C48.3881 18.3046 47.3097 18.107 45.7113 18.107C44.1129 18.107 43.0269 18.3046 42.5757 18.715C42.3607 18.8947 42.1883 19.1194 42.0707 19.3729C41.953 19.6264 41.8931 19.9026 41.895 20.1818V32.3418Z" fill="#40A4FF"/>
</g>
<defs>
<clipPath id="clip0_205_1319">
<rect width="155" height="95" fill="white" transform="translate(0 0.00378418)"/>
</clipPath>
</defs>
</svg>
