<svg width="68" height="86" viewBox="0 0 68 86" fill="none" xmlns="http://www.w3.org/2000/svg">
<g clip-path="url(#clip0_213_470)">
<path d="M34.0027 77.0054C52.7819 77.0054 68.0054 61.7819 68.0054 43.0027C68.0054 24.2235 52.7819 9 34.0027 9C15.2235 9 0 24.2235 0 43.0027C0 61.7819 15.2235 77.0054 34.0027 77.0054Z" fill="#E6332A"/>
<path d="M47.89 30.167C44.2763 26.6979 39.5984 24.9633 33.8563 24.9633C28.1142 24.9633 23.402 26.7864 19.7197 30.4326C17.1501 32.9583 15.4058 36.2031 14.7166 39.7396H11.0361C10.4649 39.7192 9.89542 39.8141 9.36169 40.0186C8.82797 40.2231 8.34092 40.5331 7.92961 40.9299C7.5183 41.3268 7.19117 41.8025 6.96774 42.3286C6.7443 42.8547 6.62915 43.4204 6.62915 43.992C6.62915 44.5635 6.7443 45.1292 6.96774 45.6553C7.19117 46.1814 7.5183 46.6571 7.92961 47.054C8.34092 47.4508 8.82797 47.7608 9.36169 47.9653C9.89542 48.1698 10.4649 48.2647 11.0361 48.2443H14.6786C15.2933 51.9024 17.0795 55.2618 19.7685 57.8169C23.4508 61.286 28.1486 63.0206 33.8617 63.0206C39.5063 63.0206 44.1679 61.2336 47.8466 57.6597C51.5253 54.0858 53.3809 49.5308 53.4134 43.9947C53.4134 38.2489 51.5723 33.6397 47.89 30.167ZM41.6889 52.0332C39.8315 54.1039 37.2206 55.1392 33.8563 55.1392C32.4475 55.1667 31.0488 54.8949 29.7528 54.3418C28.4567 53.7886 27.2929 52.9667 26.3381 51.9303C25.3163 50.8716 24.5181 49.6181 23.991 48.2443H28.2949C28.8661 48.2647 29.4356 48.1698 29.9693 47.9653C30.503 47.7608 30.9901 47.4508 31.4014 47.054C31.8127 46.6571 32.1398 46.1814 32.3633 45.6553C32.5867 45.1292 32.7018 44.5635 32.7018 43.992C32.7018 43.4204 32.5867 42.8547 32.3633 42.3286C32.1398 41.8025 31.8127 41.3268 31.4014 40.9299C30.9901 40.5331 30.503 40.2231 29.9693 40.0186C29.4356 39.8141 28.8661 39.7192 28.2949 39.7396H23.9097C24.3991 38.3204 25.1927 37.0254 26.2351 35.9452C27.2192 34.9262 28.4057 34.1243 29.7182 33.5913C31.0308 33.0582 32.4404 32.8058 33.8563 32.8501C35.2661 32.8199 36.6671 33.0795 37.9725 33.6128C39.2778 34.1462 40.4597 34.9419 41.445 35.9507C43.447 37.9852 44.457 40.6665 44.4751 43.9947C44.4751 47.2217 43.5464 49.9012 41.6889 52.0332Z" fill="white"/>
</g>
<defs>
<clipPath id="clip0_213_470">
<rect width="68" height="85.3617" fill="white" transform="translate(0 0.574471)"/>
</clipPath>
</defs>
</svg>
