<svg width="40" height="32" viewBox="0 0 40 32" fill="none" xmlns="http://www.w3.org/2000/svg">
<g clip-path="url(#clip0_206_420)">
<path d="M39.8367 3.74102C38.3711 4.38666 36.7959 4.82149 35.1426 5.01749C36.8307 4.01443 38.1271 2.42502 38.7362 0.530899C37.1577 1.45984 35.4082 2.13513 33.5458 2.49913C32.0569 0.922899 29.9307 -0.0620422 27.5803 -0.0620422C22.3036 -0.0620422 18.4261 4.82313 19.6179 9.89443C12.8274 9.55678 6.80544 6.32855 2.77363 1.42196C0.632408 5.0669 1.66318 9.83513 5.30161 12.2497C3.96376 12.2069 2.70226 11.8429 1.60177 11.2351C1.51214 14.9921 4.22601 18.5069 8.15657 19.2892C7.00629 19.5989 5.74645 19.6714 4.46503 19.4276C5.50411 22.6493 8.52174 24.993 12.1004 25.0589C8.66449 27.7321 4.33556 28.9262 0 28.4189C3.61684 30.7198 7.91423 32.0622 12.5287 32.0622C27.7031 32.0622 36.2763 19.3453 35.7584 7.93937C37.3552 6.79466 38.7412 5.36666 39.8367 3.74102Z" fill="currentColor"/>
</g>
<defs>
<clipPath id="clip0_206_420">
<rect width="39.8367" height="32" fill="white"/>
</clipPath>
</defs>
</svg>
