<svg width="200" height="90" viewBox="0 0 200 90" fill="none" xmlns="http://www.w3.org/2000/svg">
<path d="M48.5774 63.583C48.5774 63.583 47.1446 77.0374 58.9844 82.4192C70.8243 87.8009 91.2211 86.7515 91.2749 80.9392C91.2749 78.921 88.8397 74.5215 88.8397 74.5215C88.8397 74.5215 95.5669 75.9544 99.4619 75.4296C101.204 79.7283 103.498 87.1215 104.924 88.8235C106.351 90.5254 113.253 88.8235 113.253 88.8235C113.253 88.8235 112.99 84.1144 114.423 81.6792C115.856 79.2439 117.935 72.3149 117.935 72.3149C117.935 72.3149 116.509 79.3449 119.495 79.7149C122.482 80.0848 139.839 75.0058 143.713 75.9409C147.588 76.876 148.967 76.4589 148.543 73.8555C148.12 71.252 146.202 65.3523 147.198 62.1905C148.194 59.0287 149.653 59.4996 149.653 59.4996C149.653 59.4996 158.089 66.5363 166.061 67.9894C199.63 74.1044 201.971 47.7002 199.112 38.4368C196.253 29.1735 188.705 13.2906 159.152 16.5936L155.742 17.6162C155.742 17.6162 163.33 13.3848 163.417 5.31885C163.505 -2.74705 146.99 0.764542 146.99 0.764542C142.692 1.90854 138.851 4.34915 135.991 7.75409C131.066 13.5193 125.348 12.3689 122.98 10.7746C120.612 9.18026 117.316 3.28051 107.635 1.93507C97.955 0.589635 88.9137 0.724179 87.0435 1.93507C85.1734 3.14597 87.5481 8.89099 87.5481 8.89099C87.5481 8.89099 73.5891 2.43961 65.0052 13.2906C56.8115 11.1311 48.3084 11.6895 45.1802 18.2889C45.7453 5.44667 45.456 2.87015 42.0252 3.63033C39.2334 4.24923 28.5708 5.9983 28.86 10.3575C29.1493 14.7167 31.5509 29.456 31.5509 29.456C31.5509 29.456 18.7693 15.7662 17.0673 15.5375C15.3653 15.3087 -3.47083 22.8768 0.565484 26.5162C4.6018 30.1556 37.3027 65.4599 40.0339 66.2672C42.7651 67.0745 48.5774 63.583 48.5774 63.583Z" fill="#4B277D"/>
<path d="M121.023 39.345C120.236 39.345 118.56 39.7419 118.076 40.6905C117.403 41.8745 114.242 53.0214 113.946 54.313C113.81 54.8126 113.642 55.3025 113.441 55.7796C113.282 56.1624 113.143 56.5531 113.024 56.9501C112.694 58.2148 112.351 59.3315 111.927 60.5088C111.638 61.3699 111.342 62.2511 111.066 63.1997C110.69 64.4845 110.306 65.7358 109.929 66.9198C109.768 67.4512 109.627 68.023 109.472 68.6285C109.25 69.503 109.028 70.3977 108.752 71.1848L107.857 68.4199L106.963 65.8165C106.788 65.2918 106.431 64.128 105.974 62.648L105.92 62.4798C105.584 61.39 105.2 60.1388 104.803 58.8606C104.481 57.8845 104.108 56.9257 103.687 55.9881C103.344 55.201 103.014 54.4476 102.799 53.7681C102.456 52.712 102.254 51.8038 102.126 51.1378C102.081 50.7245 101.96 50.323 101.769 49.9538C101.619 49.7639 101.421 49.6181 101.194 49.5317C100.968 49.4452 100.723 49.4214 100.484 49.4627H100.37H99.4687C98.6678 49.422 97.8649 49.4423 97.0671 49.5233C96.3405 49.5233 96.2329 50.0009 96.2329 50.2767C96.3883 51.2715 96.6383 52.2491 96.9796 53.1963C97.2218 53.9901 97.5043 54.9185 97.8205 55.9276C98.0829 56.755 98.4462 57.6161 98.8363 58.5175C99.2265 59.419 99.61 60.3473 99.9127 61.2689C100.215 62.1906 100.444 63.2131 100.659 64.1616C100.875 65.1102 101.076 66.0116 101.332 66.8861C101.917 68.6823 102.583 70.2497 103.068 71.3866C103.344 72.0594 103.559 72.537 103.646 72.8263C103.83 73.4881 103.965 74.1627 104.05 74.8444C104.133 75.5254 104.263 76.1998 104.44 76.8626C104.589 77.3367 104.771 77.7998 104.985 78.2484C105.168 78.6454 105.33 79.0518 105.469 79.466C105.568 79.8193 105.642 80.1789 105.691 80.5423C105.748 80.9802 105.843 81.4123 105.974 81.834C106.099 82.3228 106.399 82.749 106.816 83.0327C107.234 83.3163 107.74 83.4379 108.241 83.3745C108.456 83.3745 108.665 83.3745 108.873 83.3745C109.082 83.3745 109.311 83.3745 109.546 83.3745H110.071C110.932 83.3745 111.1 82.2981 111.228 81.4371C111.259 81.2108 111.302 80.9863 111.356 80.7643L112.6 78.0735L112.721 77.69C113.031 76.6742 113.354 75.6248 113.744 74.6964C114.254 73.2978 114.642 71.8572 114.901 70.391C115.123 69.3147 115.352 68.2114 115.688 67.1351C115.878 66.4949 116.109 65.868 116.381 65.2582C116.679 64.6424 116.933 64.0062 117.141 63.3544C117.659 61.5986 118.164 59.8495 118.668 58.1004L118.729 57.8784C118.753 57.7505 118.787 57.6246 118.83 57.5017C118.882 57.348 118.922 57.1906 118.951 57.0308C119.072 56.3581 120.175 52.7927 121.245 49.3484C123.007 43.6639 123.835 40.9461 123.835 40.5088C123.781 39.3585 121.05 39.345 121.023 39.345Z" fill="#0B0B0B"/>
<path d="M85.4356 75.7123C84.9176 75.7123 84.7629 75.9746 84.2718 76.1024C82.8717 76.6319 81.3891 76.9098 79.8924 76.9232C77.3208 76.7821 74.7599 76.4878 72.2234 76.0419C68.9001 75.5037 65.6576 74.8041 64.8235 74.1852C63.8153 73.4063 62.9269 72.4839 62.1864 71.4472C61.8468 71.0277 61.5703 70.5608 61.3657 70.0614C61.0832 69.2457 60.876 68.4057 60.7468 67.5522C60.6275 66.8337 60.56 66.1075 60.545 65.3793C60.5428 64.5737 60.6308 63.7704 60.8073 62.9844C60.9503 62.3405 61.1553 61.7119 61.4195 61.1075C61.6892 60.3152 62.0221 59.5458 62.4151 58.8068C62.7986 58.2619 63.2358 58.2888 63.7606 57.8381C64.9347 57.0627 66.2212 56.4728 67.5749 56.089C68.8127 55.6585 70.2658 55.228 71.6112 54.8378C72.9566 54.4476 74.3021 54.1247 75.4861 53.8691C76.6027 53.5913 77.7418 53.4134 78.89 53.3376C79.7982 53.3376 83.3972 54.0103 84.043 54.5014C84.3525 54.8677 84.7859 55.1072 85.2607 55.1741C86.1083 55.1674 86.1083 53.0753 86.1083 52.4765C86.1083 51.6962 86.0208 50.4584 85.375 49.9606C83.5116 48.5344 81.3387 48.2317 79.0044 48.2317C78.5738 48.2317 78.1366 48.3191 77.706 48.3191C75.2724 48.6739 72.8604 49.1635 70.481 49.7857C67.7901 50.418 65.2069 51.0571 64.5409 51.232C62.9962 51.6141 61.5301 52.2629 60.2086 53.1493C59.1922 54.0673 58.303 55.117 57.5648 56.2707C56.6231 57.5362 55.9 58.9506 55.4256 60.455C54.3555 64.2482 54.6556 68.2972 56.2732 71.8912C57.13 73.6937 58.3535 75.2976 59.8655 76.6002C61.23 77.7729 62.7776 78.7138 64.4467 79.3853C65.8108 79.8254 67.2077 80.156 68.6243 80.3742C72.4027 81.0945 76.2221 81.5798 80.0606 81.8273C81.3656 81.8273 86.041 81.3496 86.2159 79.6611C86.2897 79.0136 86.319 78.3618 86.3034 77.7102C86.337 77.0577 86.2496 75.7123 85.4356 75.7123Z" fill="#0B0B0B"/>
<path d="M99.9057 69.7048L99.6568 69.207C98.8092 67.5185 97.7598 65.4196 97.4974 63.7916C97.3662 63.3389 97.1365 62.9208 96.8247 62.5673C96.5832 62.2908 96.3961 61.9713 96.2731 61.6255C96.1489 61.2006 95.9702 60.7936 95.7416 60.4146C95.6097 60.1964 95.4884 59.9719 95.3784 59.7419C94.9814 58.8202 94.6115 57.8784 94.2549 56.9635C93.8984 56.0486 93.5216 55.0934 93.118 54.165L93.0777 54.0776C92.6875 53.203 92.526 53.0618 91.194 53.0618H90.7164C89.5459 53.0618 89.2364 53.3779 88.9337 54.1448C88.7453 54.6427 88.5099 55.1203 88.261 55.5912C88.1466 55.8334 88.0255 56.0755 87.9179 56.3177C87.6017 56.9904 87.3192 57.7506 87.0501 58.4502C86.781 59.1499 86.5119 59.8562 86.2025 60.5491L85.4827 62.0829C84.711 63.624 84.0217 65.2048 83.4174 66.8189C83.2459 67.2804 83.0436 67.7298 82.812 68.1643C82.4191 68.8408 82.1396 69.5771 81.9845 70.3439C81.9167 70.6274 81.8127 70.901 81.6751 71.1579C81.4706 71.5244 81.3467 71.9304 81.3118 72.3486C81.3111 72.4058 81.3228 72.4624 81.346 72.5147C81.3692 72.5669 81.4034 72.6136 81.4463 72.6513C81.7827 72.9877 82.9398 73.1492 85.2001 73.1357H85.2876C86.4783 73.1357 86.6935 72.0257 86.8415 71.2925C86.9088 70.9494 86.9895 70.5256 87.1308 70.5256C87.4268 70.5256 87.7295 70.5256 88.0255 70.5256C88.4331 70.4951 88.8423 70.4951 89.2499 70.5256C89.4112 70.536 89.573 70.536 89.7342 70.5256C90.1917 70.5256 90.6424 70.4785 91.0797 70.4448C91.8739 70.3787 92.671 70.354 93.4678 70.3708H94.2885C95.338 70.4112 95.486 70.9494 95.6743 71.6355C95.8627 72.3217 96.0645 73.0886 97.2754 73.1222C97.4571 73.1222 97.6521 73.1222 97.8405 73.1222C98.0289 73.1222 98.2509 73.1222 98.4459 73.1222C100.377 73.1222 101.137 72.9003 101.137 72.3688C101.019 71.6632 100.733 70.9964 100.303 70.4246C100.182 70.2094 100.013 69.9672 99.9057 69.7048ZM93.6091 67.1081C93.3613 67.1594 93.1087 67.1842 92.8557 67.1821C91.5102 67.1821 90.1648 67.1821 88.8193 67.1081L88.927 66.8256C89.1215 66.3258 89.3461 65.8383 89.5997 65.3658C89.6702 65.2576 89.7183 65.1364 89.741 65.0093C89.7385 64.9689 89.7385 64.9285 89.741 64.8882C90.0304 63.7097 90.4833 62.5775 91.0864 61.5246C91.6582 62.7758 92.2906 64.2154 92.8086 65.6147C92.966 65.9701 93.1481 66.314 93.3535 66.644C93.4275 66.7852 93.5082 66.9467 93.6091 67.1081Z" fill="#0B0B0B"/>
<path d="M144.373 71.9315C144.373 71.6624 144.339 71.3261 144.339 70.8955C144.339 70.465 144.339 69.1263 142.509 69.1263C142.348 69.1034 142.185 69.1034 142.025 69.1263H141.809C141.339 69.1263 140.854 69.0792 140.383 69.0388C139.921 68.9865 139.456 68.9573 138.991 68.9514H135.721C134.806 68.9514 133.885 68.9514 132.99 69.0052C132.095 69.059 131.221 69.0523 130.36 69.0523C127.077 69.0523 126.619 68.8034 126.572 68.7697C126.397 68.4943 126.291 68.1804 126.263 67.8548C126.253 67.4508 126.267 67.0465 126.303 66.6439C126.371 66.5296 126.424 66.4354 126.478 65.4532C128.362 65.3187 130.192 65.1976 131.941 65.1976C132.573 65.1976 133.226 65.1976 133.912 65.2649C134.598 65.3321 135.311 65.3321 136.004 65.3321C136.285 65.3392 136.566 65.3616 136.845 65.3994C137.146 65.4441 137.449 65.4688 137.753 65.4734C139.166 65.4734 140.921 65.4734 142.341 65.3321C142.541 65.348 142.74 65.2874 142.897 65.1626C143.054 65.0378 143.159 64.858 143.189 64.6594V63.4082C143.189 62.648 143.236 62.1906 142.933 61.8744C142.63 61.5582 141.971 61.4775 140.531 61.4573C140.306 61.4419 140.081 61.415 139.859 61.3766C139.555 61.3195 139.246 61.288 138.937 61.2824C138.66 61.2852 138.383 61.3099 138.11 61.3564C137.355 61.4237 136.597 61.4237 135.842 61.3564C135.077 61.2855 134.307 61.2855 133.542 61.3564C133.096 61.4224 132.642 61.4224 132.196 61.3564C131.929 61.3141 131.659 61.2894 131.389 61.2824H126.397C126.397 59.9369 126.458 58.531 126.566 57.1721C126.566 57.0779 126.848 57.051 126.882 57.0443H127.75C128.274 57.0443 128.819 57.0443 129.357 57.0443C130.227 57.069 131.097 57.0285 131.961 56.9232C132.579 56.8434 133.201 56.7985 133.824 56.7886C134.349 56.7886 134.921 56.7886 135.472 56.8559C136.024 56.9232 136.609 56.9232 137.148 56.9232C137.82 56.9232 138.493 56.8828 139.112 56.8424C139.731 56.8021 140.404 56.755 141.043 56.755C141.534 56.755 141.904 56.755 142.206 56.8021C142.724 56.8424 143.014 56.8626 143.229 56.6608C143.444 56.459 143.458 56.1092 143.458 55.4701C143.458 54.9521 143.538 54.4371 143.693 53.943C143.787 53.6067 143.861 53.3376 143.693 53.1223C143.525 52.907 143.02 52.8263 141.271 52.833H140.309C139.992 52.8399 139.675 52.8646 139.361 52.907C138.69 52.9787 138.013 52.9787 137.343 52.907C135.883 52.7927 134.309 52.8599 132.802 52.907C131.739 52.907 130.636 52.9541 129.566 52.9541H128.974C127.883 52.933 126.792 52.9689 125.705 53.0618C125.066 53.1317 124.423 53.1609 123.781 53.1492C123.538 53.1492 123.222 53.1492 122.704 53.1492C122.186 53.1492 121.668 53.203 121.574 53.8219C121.525 54.1017 121.505 54.3857 121.514 54.6696C121.521 55.1067 121.559 55.5429 121.628 55.9746C121.7 56.3974 121.745 56.8243 121.762 57.2528C121.762 57.6093 121.762 57.9726 121.709 58.3291C121.655 58.6857 121.655 59.0422 121.655 59.392C121.655 59.7419 121.695 60.28 121.736 60.7375C121.776 61.1949 121.823 61.5918 121.823 62.0089C121.806 62.1555 121.761 62.2973 121.688 62.426C121.602 62.5858 121.551 62.7626 121.54 62.944C121.54 64.6729 121.54 65.2985 121.54 65.9107C121.54 66.5229 121.507 67.1418 121.507 68.8505C121.518 69.1983 121.556 69.5447 121.621 69.8865C121.689 70.2165 121.727 70.552 121.736 70.8888C121.731 71.267 121.666 71.6419 121.54 71.9988C121.446 72.2948 121.372 72.5504 121.54 72.7724C121.709 72.9944 122.213 73.0953 123.781 73.0751H124.272C124.497 73.0668 124.722 73.0421 124.944 73.0011C125.337 72.9194 125.742 72.9194 126.135 73.0011C126.367 73.0554 126.604 73.0914 126.841 73.1088C127.79 73.1761 128.765 73.25 129.734 73.25H131.376C131.766 73.25 132.149 73.25 132.526 73.3039C132.903 73.3577 133.259 73.351 133.629 73.351C133.912 73.3465 134.193 73.3173 134.47 73.2635C135.234 73.179 136.003 73.1565 136.771 73.1962H138.318C138.728 73.1962 139.139 73.1559 139.549 73.129C140.141 73.129 140.76 73.055 141.359 73.055C142.079 73.055 142.623 73.0886 143.02 73.1088C143.733 73.1424 144.056 73.1626 144.272 72.9473C144.487 72.7321 144.406 72.4697 144.373 71.9315Z" fill="#0B0B0B"/>
<path d="M167.184 53.1291C168.15 53.1291 168.933 52.346 168.933 51.3801C168.933 50.4141 168.15 49.631 167.184 49.631C166.218 49.631 165.435 50.4141 165.435 51.3801C165.435 52.346 166.218 53.1291 167.184 53.1291Z" fill="#0B0B0B"/>
<path d="M46.1287 53.6942C45.8663 52.0124 45.5703 50.2633 45.4559 48.6488C45.1801 44.9286 43.7809 41.4574 43.2225 37.7305C42.9332 35.9277 43.1283 33.8826 42.8189 32.0864C42.3704 29.3955 41.9219 26.7338 41.4734 24.1012C41.3524 23.7043 41.3456 23.2536 41.2245 22.8634C40.6393 20.8049 39.9531 13.9634 39.4486 12.9274C39.0315 12.073 36.3406 13.1494 35.8361 13.3983C34.8203 13.8961 33.2057 15.3155 33.1788 16.5399C33.0308 18.3697 33.643 20.0851 34.1206 22.1773C34.383 23.3209 34.4032 25.1709 34.5983 26.1732C35.271 29.4157 35.4593 32.2277 36.0042 35.4702C36.3204 37.3135 36.6097 39.15 36.872 40.9932C37.269 43.3679 38.13 46.4288 38.1502 48.7564L34.2484 44.7201L31.3961 41.9418C30.8243 41.3498 29.5529 39.9909 27.9585 38.2822L24.2182 34.3131C22.4019 32.3891 20.0406 30.6535 18.4395 29.0054C16.3743 26.8863 15.2576 25.07 14.8203 24.848C14.2418 24.5251 13.7103 24.848 13.1991 25.1103C11.7558 25.726 10.3537 26.4338 9.0013 27.2294C8.66494 27.3976 8.4093 27.5927 8.61785 28.0232C9.44139 29.1375 10.3405 30.1939 11.3087 31.185C12.116 32.0595 13.0645 33.0753 14.1072 34.1786C15.789 35.9546 18.2041 37.7238 20.1617 39.7487C22.1193 41.7736 23.7271 44.1819 25.5435 46.0723C28.5169 49.1331 31.423 51.38 32.2706 52.2815C33.6161 53.7345 34.4637 55.45 35.7957 56.9232C36.6702 57.8852 37.8744 58.6857 38.7557 59.6141C39.6369 60.5424 40.0607 61.4977 40.8949 62.305C42.6103 64.1146 44.0903 62.7086 45.7856 61.8879L46.4583 61.5582C47.4203 61.0941 46.3372 58.975 46.1758 57.9188L46.1287 53.6942Z" fill="#0B0B0B"/>
<path d="M148.974 30.6131C148.967 30.555 148.967 30.4963 148.974 30.4382C149 30.2758 149.014 30.1116 149.014 29.9471C149.01 29.731 148.978 29.5163 148.92 29.308C148.903 29.2625 148.892 29.215 148.887 29.1668C148.91 28.166 148.7 27.1735 148.274 26.2674L148.106 25.8368C146.256 21.3296 141.641 18.5244 136.058 18.5244C134.968 18.4906 133.877 18.5831 132.809 18.8002C132.681 18.8405 129.654 19.7823 128.591 20.5762C128.463 20.6703 128.348 20.7712 128.227 20.8789C128.125 20.9774 128.015 21.0674 127.898 21.148C127.151 21.6861 124.662 23.5698 124.151 25.1843C124.151 25.2516 124.009 25.4399 123.935 25.561C123.665 25.9211 123.502 26.3501 123.465 26.7988C123.438 27.196 123.366 27.5887 123.249 27.9693C123.077 28.5396 122.98 29.1298 122.96 29.7251C122.966 30.0281 123 30.3298 123.061 30.6266C123.096 30.7973 123.119 30.9704 123.128 31.1446C123.142 31.6877 123.24 32.2254 123.417 32.7389L123.518 33.0753C123.552 33.1733 123.575 33.2748 123.586 33.378C123.635 33.8176 123.797 34.237 124.056 34.5956C124.272 34.8983 124.474 35.2145 124.682 35.5576C124.891 35.9007 124.985 36.042 125.133 36.264C125.893 37.4278 127.952 38.5512 128.779 38.9548C128.981 39.0625 129.162 39.1836 129.351 39.3047C129.83 39.6602 130.37 39.9247 130.945 40.085C131.234 40.1523 131.537 40.2061 131.84 40.2532C132.143 40.3003 132.513 40.3675 132.809 40.4415H132.883C133.295 40.6118 133.735 40.7074 134.181 40.7241C134.302 40.7313 134.423 40.7313 134.544 40.7241H134.598C134.806 40.7446 135.012 40.776 135.217 40.8183C135.629 40.9044 136.048 40.9517 136.468 40.9595C139.409 40.8836 142.258 39.9146 144.635 38.1812C144.777 38.0715 144.912 37.9524 145.039 37.8247C145.135 37.7178 145.246 37.625 145.368 37.5489C146.082 36.9719 146.705 36.2917 147.218 35.5307C147.433 35.1203 147.662 34.7033 147.891 34.3467C148.6 33.2306 148.976 31.9353 148.974 30.6131ZM128.934 28.6891C128.934 28.6084 129.001 28.521 129.028 28.4604L129.068 28.373C129.613 26.9468 129.99 26.4557 131.403 25.2919C131.638 25.1298 131.891 24.9944 132.156 24.8883C132.385 24.7806 132.62 24.6663 132.829 24.5385C133.49 24.1814 134.23 23.9963 134.981 24.0003C135.188 23.9965 135.395 23.9808 135.6 23.9532C135.741 23.931 135.882 23.9175 136.024 23.9128C138.385 23.9128 141.44 24.5856 142.61 27.781C142.832 28.3852 142.973 29.0164 143.027 29.6579C143.021 29.7711 143.005 29.8837 142.98 29.9942C142.926 30.226 142.897 30.4627 142.893 30.7006C142.893 31.7635 142.032 32.6649 141.117 33.6202L140.713 34.0507C140.476 34.2556 140.208 34.4214 139.919 34.5418C139.805 34.5956 139.69 34.6494 139.583 34.71L139.408 34.8042L139.098 34.9723C138.12 35.2571 137.11 35.422 136.091 35.4634C134.813 35.4634 132.795 35.1271 132.284 34.7503C132.008 34.5351 131.732 34.3467 131.463 34.1651L131.026 33.8691C130.429 33.3988 129.936 32.8099 129.578 32.1395C129.22 31.469 129.006 30.7317 128.947 29.974C128.947 29.9269 128.947 29.8731 128.947 29.8126C129.046 29.444 129.041 29.0553 128.934 28.6891Z" fill="#0B0B0B"/>
<path d="M121.52 25.5677C121.52 22.1638 118.358 17.7642 115.203 15.6317C112.846 13.9199 110.144 12.7422 107.286 12.1806L103.922 11.6156C102.709 11.3665 101.474 11.2403 100.235 11.2388C98.89 11.2388 97.6522 11.4272 96.3942 11.4272C94.5577 11.4272 92.3579 10.7208 92.3579 12.9879C92.3579 14.4544 92.4723 15.968 92.4723 17.3875C92.4723 18.2418 92.3041 19.1433 92.3041 19.9909C92.3041 21.1211 92.3041 22.2714 92.3041 23.415C90.2859 19.298 85.8594 16.7686 80.5584 16.7686C79.4705 16.7346 78.3824 16.8272 77.3159 17.0444C77.1881 17.0848 74.1541 18.0266 73.0912 18.8204C72.9701 18.9146 72.8491 19.0155 72.728 19.1298C72.6238 19.2242 72.5137 19.3118 72.3983 19.3922C71.6516 19.9304 69.1626 21.814 68.6513 23.4285C68.6513 23.4958 68.51 23.6841 68.436 23.8052C68.1658 24.1654 68.0026 24.5944 67.9651 25.043C67.9386 25.4402 67.8664 25.833 67.7498 26.2136C67.7498 26.301 67.7027 26.3952 67.6758 26.4894C65.3482 23.711 61.6214 22.0696 57.3832 22.0696C56.2954 22.0357 55.2072 22.1282 54.1407 22.3454C54.0129 22.3858 50.979 23.3276 49.9161 24.1214C49.795 24.2156 49.6739 24.3165 49.5528 24.4309C49.4486 24.5252 49.3385 24.6128 49.2232 24.6932C48.4764 25.2314 45.9941 27.115 45.4761 28.7295C45.4761 28.7968 45.3348 28.9852 45.2608 29.1062C44.9935 29.4679 44.8306 29.8961 44.7899 30.344C44.7635 30.7412 44.6912 31.134 44.5747 31.5146C44.4027 32.0849 44.3055 32.6751 44.2854 33.2704C44.2999 33.5512 44.3382 33.8302 44.3998 34.1045C44.4353 34.2752 44.4578 34.4484 44.467 34.6225C44.4813 35.1657 44.5788 35.7034 44.7563 36.2169L44.8639 36.5532C44.8918 36.6525 44.9121 36.7537 44.9245 36.856C44.9772 37.2948 45.1391 37.7135 45.3954 38.0736C45.6107 38.3763 45.8125 38.6925 46.021 39.0356C46.1757 39.2778 46.3237 39.5199 46.4717 39.7083C47.2386 40.8721 49.2904 41.9955 50.1246 42.3992C50.3192 42.5053 50.5079 42.6221 50.6897 42.749C51.1688 43.1046 51.7093 43.3691 52.284 43.5293C52.5733 43.5966 52.876 43.6504 53.1787 43.6975C53.4815 43.7446 53.8515 43.8052 54.1542 43.8859H54.2215C54.6344 44.0553 55.0738 44.1509 55.5198 44.1684C55.6408 44.1756 55.7621 44.1756 55.8831 44.1684H55.9436C56.1589 44.1684 56.3607 44.2222 56.5692 44.2626C56.9809 44.3494 57.3999 44.3967 57.8205 44.4039C60.731 44.3384 63.5549 43.401 65.9268 41.713C66.0705 41.605 66.2055 41.4858 66.3304 41.3565C66.4284 41.2512 66.5391 41.1585 66.66 41.0806C67.3767 40.507 68.0007 39.8263 68.51 39.0625C68.7387 38.6387 68.954 38.235 69.1827 37.8852C69.7143 37.0748 70.0569 36.1551 70.1851 35.1944C71.1197 36.011 72.1579 36.7008 73.2729 37.2461C73.4747 37.3538 73.6496 37.4749 73.8379 37.596C74.3171 37.9413 74.8551 38.1966 75.4256 38.3494C75.7148 38.4167 76.0176 38.4705 76.3203 38.5176C76.623 38.5647 76.993 38.6319 77.2957 38.7059H77.363C77.7759 38.8754 78.2154 38.971 78.6613 38.9885C78.7823 38.9957 78.9036 38.9957 79.0246 38.9885H79.0986C79.3139 38.9885 79.5157 39.0423 79.7242 39.0827C80.1359 39.1694 80.5549 39.2167 80.9755 39.2239C83.896 39.1431 86.7239 38.1817 89.0885 36.4658C89.2323 36.3578 89.3672 36.2386 89.4921 36.1093C89.5901 36.004 89.7008 35.9113 89.8218 35.8334C90.5384 35.2598 91.1624 34.5791 91.6717 33.8153C91.9005 33.3915 92.1225 32.9878 92.3445 32.638C92.4319 32.5169 92.5059 32.3824 92.5799 32.2546C92.5799 35.6182 92.4117 38.9818 92.4117 42.2781V43.2266C92.4655 43.8388 92.8154 44.2626 93.6159 44.451C94.5913 44.6931 98.2644 44.6931 99.5291 44.6931C100.101 44.6931 100.505 44.451 101.076 44.451C101.648 44.451 102.052 44.5519 102.57 44.5519C103.437 44.4702 104.299 44.3422 105.153 44.1684C111.463 43.2737 113.475 41.0941 117.84 37.8314C118.538 37.3098 119.139 36.67 119.616 35.9411C120.074 35.2684 119.96 34.5956 120.289 33.9229C121.201 32.3787 121.707 30.6294 121.762 28.8372C121.762 28.4604 121.648 28.0837 121.648 27.7003C121.574 26.9939 121.52 26.2808 121.52 25.5677ZM85.1934 32.2949C84.9567 32.4999 84.6887 32.6656 84.3996 32.786L84.0902 32.9677L83.9153 33.0618L83.6058 33.23C82.627 33.5147 81.6173 33.6796 80.5988 33.7211C79.3273 33.7211 77.3025 33.3847 76.7979 33.008C76.5221 32.7927 76.2396 32.6044 75.9705 32.4228L75.5332 32.1268C74.9363 31.6565 74.4433 31.0676 74.0855 30.3971C73.7278 29.7267 73.5129 28.9894 73.4545 28.2317V28.077C73.5446 27.6911 73.5236 27.2876 73.394 26.9132C73.4276 26.8392 73.4612 26.7517 73.4881 26.6845L73.5285 26.597C73.9546 25.3525 74.7769 24.282 75.8696 23.5496C76.1016 23.3859 76.3522 23.2504 76.6163 23.146C76.845 23.0383 77.0872 22.924 77.289 22.7961C77.9501 22.4391 78.6904 22.254 79.4417 22.258C79.6509 22.2539 79.8598 22.2381 80.0673 22.2109C80.2053 22.1884 80.3447 22.1749 80.4844 22.1705C82.8457 22.1705 85.8662 22.8432 87.0771 26.0386C87.2966 26.6436 87.4368 27.2745 87.4941 27.9155C87.4853 28.0289 87.4673 28.1414 87.4403 28.2519C87.3927 28.4845 87.3657 28.7209 87.3596 28.9583C87.3596 30.0211 86.4918 30.9226 85.5836 31.8779C85.4356 32.0057 85.328 32.1469 85.1934 32.2949ZM50.2121 32.2008C50.2121 32.12 50.2861 32.0326 50.3062 31.972L50.3466 31.8846C50.7662 30.6277 51.5892 29.5446 52.6877 28.8035C52.9208 28.6399 53.1712 28.5023 53.4344 28.3932C53.6643 28.2904 53.8889 28.1759 54.1071 28.0501C54.7682 27.693 55.5085 27.508 56.2598 27.5119C56.4691 27.5078 56.6779 27.4921 56.8854 27.4648C57.0234 27.4423 57.1628 27.4288 57.3025 27.4244C59.6638 27.4244 62.6843 28.0972 63.8952 31.2926C64.1141 31.8978 64.2542 32.5286 64.3122 33.1695C64.3034 33.2829 64.2854 33.3953 64.2584 33.5058C64.2108 33.7384 64.1838 33.9748 64.1777 34.2122C64.1777 35.2684 63.3099 36.1765 62.4017 37.1318C62.2672 37.2731 62.1259 37.4143 61.9914 37.5623C61.7546 37.7673 61.4866 37.933 61.1976 38.0534L60.8612 38.2149L60.6863 38.3158L60.3768 38.484C59.398 38.7687 58.3883 38.9336 57.3698 38.975C56.0983 38.975 54.0735 38.6387 53.5689 38.262C53.2931 38.0467 53.0106 37.8583 52.7415 37.6767L52.3042 37.3807C51.7073 36.9104 51.2143 36.3215 50.8566 35.6511C50.4988 34.9807 50.2839 34.2433 50.2255 33.4856V33.3242C50.3264 32.9562 50.3241 32.5675 50.2188 32.2008H50.2121ZM116.381 28.3999C116.381 31.4944 115.035 33.7816 112.761 36.1833C111.981 36.9838 108.49 38.8741 107.326 39.3787C105.405 40.3135 103.317 40.8577 101.184 40.9797C100.343 40.9797 98.6007 40.9797 98.4931 40.0716C98.1506 37.4941 97.9999 34.8947 98.0424 32.2949C98.0424 30.8082 98.3653 29.3686 98.3653 27.8752C98.3653 24.9421 98.0424 21.962 98.0424 18.9751C98.0631 18.0104 98.1508 17.0484 98.3047 16.0959C98.4326 15.4568 98.4931 15.3491 99.334 15.2953C99.9193 15.2415 100.565 15.1877 101.211 15.1877C106.774 15.1877 110.716 17.6969 113.952 21.1614C114.793 22.0091 114.793 22.702 115.298 23.6101C115.876 24.6798 116.394 25.4197 116.394 26.6508L116.381 28.3999Z" fill="#0B0B0B"/>
<path d="M177.84 25.3458C176.114 24.5594 174.31 23.9552 172.459 23.5429C170.588 23.3545 166.048 23.0518 164.332 23.4689C163.794 23.5967 163.263 23.8591 162.664 23.96C160.35 24.4847 155.567 25.8907 154.073 27.6061C153.528 28.2183 152.21 28.8641 151.974 29.4224C151.255 31.1042 149.653 32.416 148.9 34.1987C148.53 35.0666 148.476 36.0084 148.133 36.8291C147.779 37.8108 147.574 38.8405 147.528 39.8832C147.474 40.825 147.037 41.3632 147.286 42.4328C147.582 43.7043 147.716 45.0295 147.958 46.274C148.315 48.2317 150.649 51.3194 151.995 52.9138C152.957 54.1045 153.279 55.1472 154.585 56.1832C155.6 56.9165 156.737 57.5286 157.726 58.3023C158.219 58.8132 158.791 59.2404 159.421 59.567C159.753 59.6587 160.077 59.7756 160.39 59.9168C161.347 60.5445 162.335 61.1238 163.35 61.6524C168.168 63.5392 173.442 63.933 178.486 62.7826C179.16 62.5174 179.856 62.3104 180.565 62.1637C181.885 61.7209 183.147 61.1224 184.325 60.381C185.065 59.789 185.805 59.2037 186.579 58.6857C188.32 57.4664 189.682 55.7806 190.508 53.822C190.683 53.4116 190.952 53.1089 191.12 52.6985C191.288 52.2882 191.275 51.6827 191.47 51.2185C192.472 48.8707 192.358 47.9828 192.445 45.487C192.553 36.8358 186.936 29.2072 177.84 25.3458ZM187.016 45.1708C186.921 46.7921 186.611 48.3937 186.095 49.9336C185.805 50.6064 185.247 51.1984 184.951 51.8845C183.559 55.1607 179.899 56.385 176.71 57.8112C175.634 58.3023 174.403 58.2552 173.185 58.3494C172.625 58.4221 172.061 58.4536 171.497 58.4435C169.138 58.1638 166.824 57.5898 164.608 56.7348C162.348 55.7796 157.807 53.1694 156.616 51.1714C156.085 50.2027 155.439 49.3147 154.887 48.4066C152.93 45.043 152.58 40.1725 153.945 36.9703C154.114 36.5734 154.82 35.6249 154.766 35.2213C154.698 34.999 154.714 34.7591 154.813 34.5486C155.099 34.0543 155.47 33.6147 155.91 33.2502C158.601 30.519 160.074 29.7319 164.117 28.5412C165.274 28.2183 166.707 28.3528 167.945 28.2048C169.928 28.0069 171.929 28.3195 173.757 29.113C174.43 29.3955 175.163 29.5032 175.896 29.7857C183.141 32.8802 187.386 38.2081 187.016 45.1708Z" fill="#0B0B0B"/>
<path d="M166.209 39.1433L166.518 38.854L168.079 38.7733L167.897 35.2751L165.045 35.4298L164.863 35.598L164.184 33.8086L160.915 35.0464L161.668 37.0376L161.231 37.0646L159.152 39.0222L161.56 41.5718L162.697 40.4887L162.973 40.4752L163.854 42.8163L167.131 41.5718L166.209 39.1433Z" fill="#0B0B0B"/>
<path d="M181.964 43.785L181.513 40.3138L177.457 40.8385L176.414 38.0938L173.145 39.3316L174.578 43.119L174.517 43.1661L171.355 43.5765L171.813 47.0477L175.869 46.523L176.905 49.2677L180.181 48.0231L178.748 44.2425L178.809 44.1954L181.964 43.785Z" fill="#0B0B0B"/>
<path d="M120.336 35.7393C119.556 35.7393 117.881 36.1429 117.39 37.0847C116.717 38.2687 113.562 49.4156 113.259 50.7005C113.124 51.2023 112.956 51.6945 112.755 52.1738C112.598 52.5566 112.461 52.9473 112.344 53.3443C112.008 54.609 111.638 55.7257 111.241 56.903C110.959 57.7641 110.663 58.6453 110.387 59.5939C110.01 60.8788 109.627 62.13 109.243 63.314C109.089 63.8387 108.941 64.4173 108.793 65.0227C108.571 65.8973 108.342 66.792 108.073 67.5791L107.178 64.8142L106.243 62.2175C106.075 61.6928 105.711 60.5222 105.254 59.049L105.207 58.8808C104.871 57.7843 104.487 56.533 104.083 55.2616C103.764 54.2844 103.391 53.3255 102.967 52.3891C102.63 51.5952 102.294 50.8485 102.086 50.1624C101.814 49.3007 101.589 48.4248 101.413 47.5388C101.366 47.1258 101.245 46.7247 101.056 46.3548C100.906 46.1649 100.707 46.019 100.481 45.9326C100.255 45.8462 100.01 45.8224 99.7714 45.8637H99.657H98.7556C97.9524 45.8231 97.1473 45.8433 96.3472 45.9242C95.6274 45.9242 95.5198 46.4019 95.5198 46.6777C95.6704 47.6712 95.9206 48.6471 96.2665 49.5905C96.5019 50.3911 96.7912 51.3194 97.1074 52.3285C97.363 53.156 97.733 54.0103 98.1165 54.9185C98.4999 55.8266 98.8968 56.7483 99.1928 57.6699C99.4888 58.5915 99.7243 59.6141 99.9395 60.5626C100.155 61.5111 100.357 62.4126 100.646 63.2535C101.231 65.0429 101.897 66.6171 102.382 67.7472C102.651 68.4199 102.866 68.9043 102.96 69.1936C103.145 69.8548 103.278 70.5296 103.357 71.2117C103.443 71.8922 103.573 72.5664 103.747 73.2299C103.899 73.703 104.081 74.1659 104.292 74.6157C104.478 75.0115 104.64 75.4181 104.776 75.8333C104.878 76.1863 104.954 76.546 105.005 76.9097C105.062 77.3453 105.157 77.7752 105.288 78.1946C105.412 78.6828 105.71 79.1089 106.126 79.3927C106.543 79.6764 107.048 79.7982 107.548 79.7351C107.763 79.7351 107.979 79.7351 108.18 79.7351C108.382 79.7351 108.618 79.7351 108.853 79.7351H109.378C110.232 79.7351 110.4 78.6655 110.535 77.8044C110.562 77.5775 110.605 77.3527 110.663 77.1317L111.9 74.4408L112.028 74.0506C112.318 73.0383 112.66 72.0414 113.051 71.0637C113.561 69.6649 113.948 68.2243 114.208 66.7583C114.415 65.6605 114.678 64.5738 114.995 63.5024C115.189 62.8785 115.427 62.2693 115.708 61.6793C116.004 61.06 116.258 60.4218 116.468 59.7688C116.98 58.0197 117.489 56.2706 117.995 54.5216L118.056 54.2928C118.081 54.168 118.112 54.0445 118.15 53.9229C118.202 53.7669 118.243 53.6072 118.271 53.4452C118.392 52.7725 119.502 49.2138 120.565 45.7628C122.328 40.085 123.162 37.3605 123.162 36.9232C123.108 35.7527 120.37 35.7393 120.336 35.7393Z" fill="#F7C73E"/>
<path d="M84.763 72.1132C84.245 72.1132 84.0903 72.3755 83.5925 72.5033C82.1948 73.0329 80.7144 73.3107 79.2198 73.324C76.646 73.1835 74.0828 72.8892 71.5441 72.4428C68.2276 71.9046 64.9784 71.1983 64.1442 70.5794C63.1307 69.8044 62.2395 68.8814 61.5004 67.8414C61.1604 67.4222 60.8838 66.9553 60.6797 66.4556C60.3954 65.6408 60.1904 64.8005 60.0675 63.9463C59.9469 63.2304 59.8817 62.5062 59.8724 61.7802C59.8725 60.9721 59.9627 60.1666 60.1415 59.3786C60.2834 58.7344 60.4885 58.1057 60.7537 57.5017C61.0199 56.7112 61.3506 55.944 61.7426 55.2077C62.1328 54.6628 62.57 54.6897 63.088 54.239C63.606 53.7883 65.0389 53.1492 66.8687 52.4765C68.1132 52.0459 69.526 51.6087 70.905 51.2185C72.2841 50.8283 73.5959 50.5121 74.7799 50.2498C75.8951 49.976 77.0316 49.7982 78.1771 49.7183C79.092 49.7183 82.6843 50.3911 83.3369 50.8889C83.6485 51.2489 84.0774 51.4872 84.5478 51.5616C85.4156 51.5616 85.4156 49.4829 85.4156 48.8707C85.4156 48.0904 85.3281 46.8526 84.6756 46.3547C82.8122 44.9286 80.6393 44.6259 78.3117 44.6259C77.8744 44.6259 77.4439 44.7066 77.0133 44.7066C74.573 45.0583 72.1542 45.5456 69.7681 46.1664C67.0773 46.7987 64.4873 47.4311 63.828 47.6127C62.2796 48.0009 60.8127 48.6615 59.4957 49.5636C58.4775 50.4798 57.5881 51.5299 56.8519 52.685C55.9062 53.948 55.1827 55.3631 54.7127 56.8693C53.6427 60.6626 53.9427 64.7115 55.5603 68.3056C56.4146 70.1078 57.6359 71.7117 59.1459 73.0146C60.5119 74.1834 62.0622 75.1177 63.7338 75.7795C65.0954 76.222 66.4901 76.5549 67.9047 76.7751C71.6965 77.4965 75.5294 77.9818 79.3813 78.2282C80.6796 78.2282 85.355 77.7505 85.5299 76.062C85.6038 75.4145 85.633 74.7627 85.6174 74.1111C85.651 73.4519 85.5636 72.1132 84.763 72.1132Z" fill="#F7C73E"/>
<path d="M99.2197 66.099L98.9775 65.608C98.1299 63.9194 97.0737 61.8205 96.8113 60.2262C96.6857 59.7692 96.4553 59.3477 96.1386 58.9951C95.9017 58.7191 95.717 58.4023 95.5937 58.0601C95.4643 57.636 95.2836 57.2294 95.0555 56.8492C94.9233 56.6323 94.8042 56.4076 94.699 56.1764C94.3021 55.2548 93.9321 54.3063 93.5688 53.3914C93.2056 52.4765 92.8356 51.5279 92.4387 50.5929L92.3983 50.5054C92.0081 49.6376 91.8467 49.4963 90.5147 49.4963H90.037C88.8665 49.4963 88.5503 49.8125 88.2543 50.5794C88.0593 51.0705 87.8238 51.5549 87.5816 52.0258C87.4605 52.2679 87.3462 52.5034 87.2318 52.7523C86.9156 53.425 86.6398 54.1785 86.3707 54.8781C86.1016 55.5777 85.8258 56.2908 85.5164 56.9837L84.8033 58.5175C84.0344 60.0543 83.3473 61.6307 82.7448 63.24C82.5708 63.7015 82.3663 64.151 82.1326 64.5854C81.7429 65.2604 81.4657 65.9943 81.3119 66.7583C81.2423 67.0434 81.1384 67.319 81.0024 67.579C80.7949 67.9443 80.6709 68.3509 80.6392 68.7697C80.6389 68.8262 80.65 68.8822 80.672 68.9342C80.694 68.9863 80.7263 69.0333 80.767 69.0725C81.1033 69.4088 82.2671 69.5703 84.5208 69.5501H84.6149C85.7989 69.5501 86.0209 68.4468 86.1622 67.7136C86.2295 67.3705 86.3169 66.9467 86.4582 66.9467C86.7542 66.9467 87.0502 66.9467 87.3462 66.9467C87.756 66.9163 88.1675 66.9163 88.5772 66.9467C88.7363 66.9569 88.8958 66.9569 89.0549 66.9467C89.5056 66.9467 89.9563 66.8996 90.4003 66.8659C91.1923 66.7998 91.9872 66.7751 92.7817 66.7919H93.6092C94.6586 66.7919 94.8066 67.3705 94.9546 68.0567C95.1026 68.7428 95.3515 69.503 96.5557 69.5366C96.7373 69.5366 96.9324 69.5366 97.1275 69.5366C97.3226 69.5366 97.5379 69.5366 97.733 69.5366C99.6637 69.5366 100.424 69.3146 100.424 68.7765C100.304 68.0726 100.021 67.4067 99.5964 66.8323C99.4575 66.595 99.3317 66.3502 99.2197 66.099ZM92.9297 63.5091C92.6796 63.5603 92.4249 63.5851 92.1696 63.5831C90.8241 63.5831 89.4787 63.5831 88.1333 63.5091L88.2476 63.2265C88.4284 62.7264 88.6419 62.2388 88.8867 61.7667C88.9618 61.661 89.0102 61.5387 89.028 61.4102C89.0255 61.3699 89.0255 61.3294 89.028 61.2891C89.3162 60.1103 89.7691 58.9779 90.3734 57.9255C90.9452 59.1768 91.5708 60.6164 92.0888 62.0156C92.2449 62.3738 92.427 62.7201 92.6337 63.0516C92.7414 63.1794 92.8356 63.3476 92.9297 63.5091Z" fill="#F7C73E"/>
<path d="M143.693 68.3258C143.693 68.0634 143.693 67.7271 143.693 67.2965C143.693 66.866 143.693 65.5273 141.863 65.5273C141.703 65.504 141.54 65.504 141.379 65.5273H141.164C140.686 65.5273 140.202 65.4869 139.731 65.4398C139.26 65.3928 138.796 65.3591 138.345 65.3591H135.069C134.154 65.3591 133.232 65.3591 132.338 65.4062C131.443 65.4533 130.575 65.46 129.707 65.46C126.431 65.46 125.974 65.2111 125.927 65.1775C125.751 64.9021 125.645 64.5881 125.617 64.2626C125.607 63.8585 125.621 63.4542 125.657 63.0517C125.718 62.9373 125.779 62.8431 125.832 61.861C127.709 61.7264 129.546 61.6053 131.288 61.6053C131.927 61.6053 132.573 61.6053 133.266 61.6726C133.959 61.7399 134.658 61.7399 135.351 61.7399C135.635 61.7466 135.918 61.7691 136.199 61.8072C136.498 61.8485 136.799 61.8732 137.1 61.8812C138.513 61.8812 140.276 61.8812 141.688 61.7399C141.889 61.7558 142.087 61.6952 142.245 61.5703C142.402 61.4455 142.506 61.2657 142.536 61.0672V59.8092C142.536 59.049 142.576 58.5916 142.28 58.2754C141.984 57.9592 141.271 57.8583 139.845 57.8583C139.61 57.8583 139.388 57.8045 139.172 57.7708C138.868 57.7192 138.56 57.6899 138.251 57.6834C137.976 57.6874 137.702 57.7099 137.43 57.7507C136.676 57.8216 135.917 57.8216 135.163 57.7507C134.396 57.6764 133.623 57.6764 132.856 57.7507C132.41 57.8174 131.956 57.8174 131.51 57.7507C131.241 57.7084 130.969 57.6837 130.696 57.6767H125.711C125.711 56.3312 125.765 54.9185 125.879 53.5664C125.879 53.4722 126.155 53.4385 126.189 53.4385H127.057C127.588 53.4385 128.126 53.4385 128.665 53.4385C129.534 53.4636 130.404 53.4231 131.268 53.3174C131.886 53.2382 132.508 53.1933 133.131 53.1829C133.663 53.1829 134.228 53.1829 134.78 53.2502C135.331 53.3174 135.916 53.3174 136.461 53.3174C137.134 53.3174 137.807 53.2771 138.426 53.23C139.045 53.1829 139.711 53.1493 140.356 53.1493C140.841 53.1493 141.217 53.1493 141.513 53.1964C142.038 53.1964 142.327 53.2502 142.536 53.0551C142.745 52.86 142.771 52.5035 142.771 51.8576C142.775 51.3425 142.852 50.8305 143 50.3373C143.094 49.9942 143.168 49.7319 143 49.5166C142.832 49.3013 142.327 49.2206 140.578 49.2273H139.61C139.294 49.2308 138.98 49.2556 138.668 49.3013C137.986 49.372 137.298 49.372 136.616 49.3013C135.103 49.2239 133.588 49.2239 132.075 49.3013C131.012 49.3013 129.909 49.3484 128.839 49.3484H128.241C127.152 49.324 126.063 49.3599 124.978 49.456C124.356 49.5398 123.729 49.5802 123.101 49.5771H122.032C121.52 49.5771 120.989 49.6377 120.895 50.2499C120.846 50.5274 120.826 50.8091 120.834 51.0907C120.843 51.5412 120.881 51.9907 120.948 52.4362C121.016 52.8478 121.054 53.2637 121.063 53.6807C121.063 54.0373 121.063 54.4073 121.002 54.7571C120.942 55.1069 120.948 55.4702 120.948 55.8267C120.948 56.1832 120.996 56.7147 121.036 57.1721C121.076 57.6296 121.117 58.0198 121.117 58.4436C121.102 58.5876 121.059 58.7273 120.989 58.8539C120.903 59.0143 120.85 59.1906 120.834 59.3719C120.834 61.1008 120.834 61.7332 120.834 62.3453C120.834 62.9575 120.834 63.5764 120.834 65.2851C120.846 65.6329 120.884 65.9792 120.948 66.3211C121.011 66.6518 121.047 66.987 121.056 67.3235C121.05 67.7008 120.986 68.0751 120.868 68.4334C120.774 68.7294 120.693 68.9851 120.868 69.2003C121.043 69.4156 121.54 69.5232 123.108 69.5098H123.599C123.825 69.5028 124.05 69.4758 124.272 69.4291C124.667 69.3569 125.073 69.3707 125.462 69.4694C125.685 69.5161 125.909 69.552 126.135 69.5771C127.084 69.6443 128.066 69.7183 129.035 69.7183H130.669C131.066 69.7183 131.45 69.7183 131.82 69.7654C132.19 69.8125 132.56 69.8192 132.923 69.8192C133.207 69.8115 133.491 69.7823 133.77 69.7318C134.532 69.6474 135.299 69.6249 136.064 69.6645H137.618C138.029 69.6645 138.432 69.6645 138.843 69.604C139.442 69.604 140.054 69.53 140.652 69.53C141.372 69.53 141.917 69.53 142.314 69.5771C143.027 69.6174 143.35 69.6376 143.565 69.4223C143.781 69.2071 143.72 68.8707 143.693 68.3258Z" fill="#F7C73E"/>
<path d="M166.68 48.7563C167.646 48.7563 168.429 47.9732 168.429 47.0073C168.429 46.0413 167.646 45.2582 166.68 45.2582C165.714 45.2582 164.931 46.0413 164.931 47.0073C164.931 47.9732 165.714 48.7563 166.68 48.7563Z" fill="white"/>
<path d="M45.6242 49.3214C45.3618 47.6329 45.0726 45.8906 44.9515 44.276C44.6757 40.5559 43.2831 37.0847 42.7181 33.3578C42.4288 31.5482 42.6239 29.5098 42.3211 27.707C41.8727 25.043 41.413 22.3813 40.9421 19.7218C40.821 19.3316 40.8075 18.8809 40.6864 18.484C40.1012 16.4658 39.4217 9.59063 38.9172 8.55464C38.5001 7.70029 35.8092 8.77664 35.298 9.02555C34.2889 9.51663 32.6744 10.9428 32.6407 12.1671C32.4994 13.9969 33.1116 15.7056 33.5893 17.8045C33.8516 18.9482 33.8718 20.7914 34.0602 21.7938C34.7329 25.043 34.9212 27.8482 35.4729 31.0975C35.7823 32.934 36.0716 34.7772 36.3407 36.6138C36.7578 39.0221 37.6188 42.0493 37.6727 44.4038L33.7709 40.3675L30.9253 37.5959C30.3535 37.0039 29.082 35.645 27.481 33.9363L23.7676 29.974C21.9579 28.05 19.59 26.3212 17.9889 24.673C15.9304 22.5472 14.8069 20.7309 14.3697 20.5156C13.7911 20.1927 13.2597 20.5156 12.7551 20.7779C11.3003 21.3844 9.88683 22.0855 8.52374 22.8768C8.18065 23.0383 7.93175 23.2401 8.14029 23.6639C8.95654 24.7839 9.85604 25.8409 10.8312 26.8257C11.6384 27.707 12.587 28.7228 13.6297 29.8193C15.3115 31.602 17.7265 33.3713 19.6841 35.3894C21.6418 37.4076 23.2428 39.8294 25.0659 41.7197C28.0326 44.7806 30.9387 47.0274 31.7931 47.9289C33.1385 49.3752 33.9862 51.0974 35.3181 52.5639C36.1859 53.5259 37.3901 54.3264 38.2714 55.2548C39.1526 56.1832 39.5765 57.1384 40.4106 57.9457C42.1328 59.7486 43.6128 58.3493 45.3013 57.5286L45.974 57.199C46.9293 56.7281 45.8529 54.609 45.6847 53.5596L45.6242 49.3214Z" fill="white"/>
<path d="M148.469 26.2405C148.466 26.18 148.466 26.1193 148.469 26.0588C148.498 25.899 148.514 25.737 148.517 25.5745C148.51 25.358 148.476 25.1433 148.416 24.9354C148.416 24.8816 148.416 24.8345 148.382 24.7941C148.404 23.7941 148.197 22.8022 147.777 21.8947L147.602 21.4642C145.779 16.9502 141.157 14.1315 135.573 14.1315C134.485 14.0942 133.397 14.1868 132.331 14.4074C132.203 14.4477 129.176 15.3895 128.106 16.1833C127.985 16.2775 127.864 16.3784 127.743 16.4861C127.641 16.5846 127.53 16.6746 127.413 16.7551C126.667 17.2933 124.184 19.1769 123.666 20.7511C123.603 20.8833 123.531 21.0113 123.451 21.1345C123.184 21.4962 123.021 21.9244 122.98 22.3723C122.957 22.7677 122.885 23.1586 122.765 23.5362C122.594 24.1067 122.497 24.6967 122.476 25.2919C122.482 25.5971 122.516 25.9011 122.576 26.2001C122.612 26.3686 122.634 26.5395 122.644 26.7114C122.656 27.2553 122.756 27.7937 122.94 28.3057L123.041 28.6488C123.071 28.7456 123.093 28.8446 123.108 28.9448C123.154 29.3862 123.314 29.808 123.572 30.1692C123.794 30.4652 123.989 30.7881 124.204 31.1312C124.42 31.4742 124.5 31.6155 124.648 31.8375C125.415 32.9946 127.474 34.1248 128.301 34.5284C128.496 34.6369 128.685 34.7559 128.866 34.8849C129.346 35.2405 129.886 35.505 130.461 35.6653C130.757 35.7325 131.053 35.7796 131.355 35.8335C131.684 35.8795 132.009 35.9423 132.331 36.0218H132.398C132.812 36.1857 133.251 36.279 133.697 36.2976C133.818 36.3048 133.939 36.3048 134.06 36.2976H134.141C134.349 36.2976 134.551 36.3582 134.759 36.3985C135.172 36.4816 135.59 36.5288 136.011 36.5398C138.931 36.4569 141.758 35.4957 144.124 33.7817C144.264 33.6698 144.399 33.5508 144.527 33.4251C144.628 33.318 144.741 33.2232 144.864 33.1426C145.578 32.5689 146.2 31.8881 146.707 31.1244C146.929 30.7208 147.151 30.297 147.38 29.9472C148.089 28.8407 148.467 27.5547 148.469 26.2405ZM128.429 24.3165L128.53 24.0811L128.564 23.9936C128.986 22.7381 129.808 21.6558 130.905 20.9125C131.141 20.7554 131.391 20.6202 131.651 20.5089C131.88 20.4013 132.122 20.2936 132.324 20.1658C132.987 19.8057 133.73 19.6205 134.484 19.6277C134.691 19.6233 134.897 19.6076 135.103 19.5806C135.241 19.5581 135.38 19.5446 135.52 19.5402C137.881 19.5402 140.935 20.2129 142.112 23.4083C142.332 24.0132 142.473 24.6441 142.529 25.2852C142.52 25.396 142.505 25.506 142.482 25.6149C142.429 25.849 142.4 26.0879 142.395 26.3279C142.395 27.3841 141.534 28.2923 140.619 29.2475L140.208 29.6781C139.974 29.8844 139.705 30.0483 139.415 30.1624L139.078 30.3306L138.903 30.4248L138.594 30.5997C137.615 30.885 136.605 31.0499 135.587 31.0908C134.315 31.0908 132.297 30.7477 131.786 30.3777C131.51 30.1624 131.234 29.9741 130.965 29.7924C130.811 29.6915 130.656 29.5906 130.521 29.4897C129.929 29.0129 129.442 28.4179 129.093 27.7427C128.743 27.0674 128.537 26.3267 128.49 25.5678C128.49 25.5274 128.49 25.4736 128.49 25.413C128.568 25.0487 128.547 24.67 128.429 24.3165Z" fill="white"/>
<path d="M121.016 21.2018C121.016 17.7911 117.861 13.3915 114.706 11.2657C112.345 9.5549 109.641 8.37738 106.781 7.81468L103.418 7.24287C102.208 6.99838 100.978 6.87221 99.7445 6.86615C98.3991 6.86615 97.1613 7.05451 95.8966 7.05451C94.06 7.05451 91.8602 6.34816 91.8602 8.61522C91.8602 10.0817 91.9746 11.5954 91.9746 13.0148C91.9746 13.8692 91.7997 14.7639 91.7997 15.6182C91.7997 16.7484 91.7997 17.892 91.7997 19.0356C89.7815 14.9253 85.355 12.3959 80.054 12.3959C78.9661 12.3585 77.8775 12.4511 76.8115 12.6717C76.6837 12.7121 73.6565 13.6539 72.5936 14.4477C72.4665 14.5412 72.3452 14.6423 72.2303 14.7504C72.1279 14.8489 72.0177 14.9389 71.9007 15.0195C71.1472 15.5577 68.6649 17.4413 68.1469 19.0155C68.0885 19.1503 68.0164 19.2788 67.9316 19.3989C67.6642 19.7606 67.5014 20.1888 67.4607 20.6367C67.4375 21.0321 67.3652 21.423 67.2454 21.8005C67.2454 21.8947 67.1984 21.9889 67.1782 22.0831C64.8438 19.3047 61.1237 17.6633 56.8788 17.6633C55.7909 17.6259 54.7024 17.7185 53.6363 17.9391C53.5085 17.9795 50.4813 18.9213 49.4184 19.7151C49.2898 19.8066 49.1683 19.9078 49.0551 20.0178C48.9514 20.1147 48.8412 20.2046 48.7255 20.2869C47.972 20.8251 45.4897 22.7087 44.9717 24.2828C44.9133 24.4177 44.8412 24.5462 44.7564 24.6663C44.4891 25.028 44.3262 25.4562 44.2855 25.9041C44.2623 26.2995 44.19 26.6904 44.0703 27.0679C43.8994 27.6385 43.8022 28.2285 43.781 28.8237C43.7858 29.1293 43.8219 29.4336 43.8886 29.7319C43.9223 29.9004 43.9426 30.0714 43.9492 30.2431C43.9615 30.787 44.0614 31.3254 44.2452 31.8375L44.3461 32.1738C44.3785 32.2723 44.401 32.3737 44.4134 32.4766C44.4596 32.9191 44.6221 33.3415 44.8843 33.7009C45.0995 33.9969 45.3014 34.3198 45.5099 34.6629C45.6579 34.9051 45.8059 35.1473 45.9606 35.3356C46.7208 36.4927 48.7793 37.6229 49.6068 38.0265C49.8014 38.135 49.9901 38.254 50.1718 38.383C50.651 38.7386 51.1914 39.0031 51.7662 39.1634C52.0622 39.2307 52.3649 39.2778 52.6609 39.3316C52.9892 39.3769 53.3148 39.4398 53.6363 39.5199H53.7103C54.1221 39.6846 54.5589 39.7779 55.002 39.7957C55.1252 39.8029 55.2487 39.8029 55.372 39.7957H55.446C55.6539 39.8185 55.8605 39.8521 56.0649 39.8967C56.4773 39.9772 56.8959 40.0222 57.3161 40.0312C60.2356 39.9506 63.0629 38.9918 65.4291 37.2798C65.5697 37.1679 65.7044 37.0489 65.8327 36.9232C65.9348 36.8177 66.0475 36.723 66.1691 36.6407C66.8838 36.067 67.5056 35.3862 68.0123 34.6225C68.2478 34.1987 68.4631 33.7951 68.6851 33.4453C69.2175 32.6352 69.5601 31.7154 69.6874 30.7544C70.6219 31.562 71.6604 32.2407 72.7752 32.7726C72.9699 32.8811 73.1585 33.0001 73.3403 33.1291C73.8194 33.4847 74.3599 33.7492 74.9346 33.9095C75.2306 33.9767 75.5333 34.0238 75.8293 34.0776C76.1576 34.123 76.4832 34.1859 76.8048 34.266H76.8788C77.2905 34.4307 77.7273 34.5239 78.1704 34.5418C78.2936 34.549 78.4172 34.549 78.5404 34.5418H78.6144C78.8223 34.5651 79.0288 34.5987 79.2333 34.6427C79.6455 34.7257 80.0642 34.773 80.4846 34.784C83.4047 34.701 86.2319 33.7398 88.5975 32.0258C88.7381 31.914 88.8728 31.795 89.0012 31.6693C89.1018 31.5622 89.2147 31.4674 89.3375 31.3868C90.0539 30.8127 90.6778 30.132 91.1875 29.3686C91.4162 28.9448 91.6315 28.5479 91.8602 28.1981C91.9477 28.0703 92.0284 27.9424 92.1024 27.8079C92.1024 31.1715 91.9275 34.5351 91.9275 37.8381V38.7799C91.9526 39.0936 92.0868 39.3885 92.3068 39.6134C92.5268 39.8383 92.8187 39.979 93.1317 40.011C95.0959 40.2126 97.0708 40.2912 99.0449 40.2465C99.6234 40.2465 100.02 40.011 100.599 40.011C101.177 40.011 101.574 40.1052 102.086 40.1052C102.953 40.0258 103.815 39.9001 104.669 39.7285C110.999 38.8405 113.017 36.6676 117.343 33.4049C118.042 32.8823 118.643 32.24 119.119 31.5079C119.583 30.8351 119.469 30.1624 119.792 29.5233C120.685 27.9835 121.178 26.2441 121.224 24.4645C121.224 24.081 121.11 23.7043 121.11 23.3276C121.09 22.6145 121.016 21.9081 121.016 21.2018ZM84.689 27.929C84.4572 28.1354 84.1907 28.2994 83.902 28.4133L83.5656 28.5815L83.384 28.6757L83.0745 28.8506C82.0958 29.1359 81.086 29.3008 80.0675 29.3417C78.796 29.3417 76.7779 28.9986 76.2666 28.6286C75.9908 28.4133 75.715 28.225 75.4459 28.0433C75.2912 27.9424 75.1364 27.8415 75.0019 27.7406C74.4047 27.2711 73.9119 26.6823 73.5552 26.0116C73.1984 25.3409 72.9855 24.6032 72.9299 23.8456C72.9246 23.7941 72.9246 23.7423 72.9299 23.6909C73.0122 23.3182 72.9936 22.9304 72.8761 22.5674C72.8761 22.4867 72.9434 22.3992 72.9703 22.3387L73.0106 22.2445C73.5555 20.8251 73.9323 20.334 75.345 19.1635C75.581 19.0063 75.8309 18.8711 76.0917 18.7598C76.3272 18.6522 76.5626 18.5446 76.7644 18.4167C77.427 18.0572 78.1701 17.872 78.9238 17.8786C79.1309 17.8748 79.3375 17.8591 79.5427 17.8315C79.6808 17.8094 79.8201 17.7959 79.9598 17.7911C82.3211 17.7911 85.382 18.4638 86.5525 21.6592C86.7725 22.2641 86.9128 22.895 86.9696 23.5361C86.9606 23.6469 86.9448 23.7569 86.9225 23.8658C86.8694 24.0999 86.84 24.3388 86.835 24.5788C86.835 25.635 85.9739 26.5432 85.059 27.4984L84.689 27.929ZM49.7077 27.8348C49.7343 27.7567 49.7658 27.6803 49.8018 27.6061L49.8422 27.5119C50.3871 26.0925 50.7638 25.6014 52.1765 24.4308C52.411 24.2711 52.6612 24.1358 52.9233 24.0272C53.1587 23.9196 53.3942 23.8119 53.596 23.6841C54.2585 23.3246 55.0016 23.1394 55.7554 23.146C55.9624 23.1422 56.1691 23.1265 56.3743 23.0989C56.5124 23.0768 56.6517 23.0633 56.7914 23.0585C59.1526 23.0585 62.2135 23.7312 63.384 26.9266C63.6041 27.5315 63.7443 28.1624 63.8011 28.8035C63.7921 28.9142 63.7764 29.0243 63.754 29.1332C63.7009 29.3673 63.6716 29.6062 63.6666 29.8462C63.6666 30.9024 62.8055 31.8038 61.8906 32.7658L61.4802 33.1964C61.2484 33.4028 60.9819 33.5667 60.6932 33.6807L60.3568 33.8489L60.1819 33.9431L59.8724 34.1113C58.8938 34.3965 57.884 34.5614 56.8654 34.6024C55.594 34.6024 53.5758 34.2593 53.0645 33.8893C52.7887 33.6673 52.5129 33.4856 52.2438 33.304C52.0891 33.2031 51.9344 33.1022 51.7998 33.0013C51.2125 32.5268 50.7299 31.9357 50.3826 31.2653C50.0352 30.5949 49.8306 29.8597 49.7817 29.1062C49.7748 29.0481 49.7748 28.9894 49.7817 28.9313C49.8581 28.5646 49.8372 28.1842 49.7211 27.8281L49.7077 27.8348ZM115.896 24.0339C115.896 27.1217 114.551 29.4157 112.271 31.8106C111.497 32.6111 108.006 34.5014 106.842 35.0127C104.92 35.9452 102.832 36.4871 100.7 36.6071C99.8589 36.6071 98.1098 36.6071 98.0089 35.7056C97.6582 33.1243 97.5031 30.5202 97.5447 27.9155C97.5447 26.4221 97.8676 24.9825 97.8676 23.4958C97.8676 20.5627 97.5447 17.5758 97.5447 14.5957C97.5661 13.6313 97.6515 12.6695 97.8004 11.7165C97.9282 11.0774 97.9954 10.9697 98.8363 10.9159C99.4149 10.8621 100.061 10.8083 100.713 10.8083C106.27 10.8083 110.219 13.3108 113.448 16.7753C114.289 17.6297 114.289 18.3226 114.793 19.2307C115.378 20.2936 115.896 21.0403 115.896 22.2647V24.0339Z" fill="white"/>
<path d="M177.336 20.9731C175.61 20.1864 173.806 19.5821 171.954 19.1702C170.084 18.9751 165.536 18.6724 163.828 19.0895C163.283 19.2241 162.758 19.4797 162.153 19.5873C159.838 20.112 155.055 21.5113 153.562 23.2267C153.024 23.8389 151.705 24.4847 151.463 25.0498C150.75 26.7316 149.149 28.0367 148.389 29.8261C148.019 30.6939 147.972 31.6357 147.622 32.4497C147.267 33.4337 147.063 34.4656 147.016 35.5106C146.969 36.4524 146.532 36.9906 146.774 38.0602C147.07 39.3316 147.205 40.6502 147.447 41.8947C147.797 43.8523 150.138 46.9468 151.483 48.5412C152.439 49.7319 152.768 50.7746 154.067 51.8106C155.082 52.5438 156.219 53.156 157.215 53.9296C157.706 54.4297 158.273 54.8476 158.897 55.1674C159.228 55.2622 159.552 55.3814 159.865 55.524C160.812 56.1594 161.791 56.7455 162.798 57.2798C167.619 59.1634 172.894 59.5571 177.941 58.4099C178.615 58.1416 179.31 57.9322 180.02 57.7843C181.337 57.3421 182.597 56.746 183.774 56.0083C184.514 55.4163 185.247 54.8243 186.027 54.3131C187.779 53.0894 189.15 51.3967 189.983 49.4291C190.158 49.0188 190.427 48.7093 190.602 48.3057C190.777 47.9021 190.757 47.2832 190.952 46.8257C191.947 44.4779 191.84 43.5899 191.92 41.0942C192.048 32.4632 186.438 24.8345 177.336 20.9731ZM186.519 40.7982C186.416 42.4187 186.107 44.0194 185.597 45.561C185.301 46.2337 184.743 46.8257 184.453 47.5119C183.061 50.788 179.401 52.0124 176.206 53.4318C175.136 53.9296 173.898 53.8758 172.681 53.97C172.121 54.0486 171.557 54.0823 170.992 54.0709C168.634 53.7879 166.32 53.214 164.104 52.3622C161.85 51.4002 157.302 48.7968 156.112 46.7988C155.587 45.8234 154.941 44.9421 154.383 44.0272C152.432 40.6636 152.075 35.7931 153.441 32.591C153.616 32.1874 154.322 31.2455 154.268 30.8419C154.201 30.6201 154.215 30.3814 154.309 30.1692C154.589 29.6731 154.959 29.233 155.399 28.8708C158.049 26.1329 159.563 25.3525 163.599 24.1618C164.756 23.8389 166.189 23.9735 167.433 23.8187C169.417 23.6274 171.417 23.9422 173.246 24.7336C173.918 25.0162 174.645 25.1238 175.378 25.4063C182.637 28.5076 186.889 33.8355 186.519 40.7982Z" fill="white"/>
<path d="M165.711 34.7706L166.014 34.4813L167.581 34.4006L167.393 30.9025L164.547 31.0505L164.366 31.2254L163.686 29.4292L160.41 30.6737L161.164 32.665L160.726 32.6852L158.654 34.6495L161.056 37.1924L162.2 36.116L162.469 36.1026L163.357 38.4369L166.626 37.1991L165.711 34.7706Z" fill="white"/>
<path d="M181.466 39.4056L181.015 35.9344L176.959 36.4658L175.916 33.7211L172.64 34.9589L174.073 38.7396L174.012 38.7934L170.857 39.2038L171.308 42.675L175.365 42.1436L176.407 44.895L179.684 43.6505L178.244 39.8698L178.311 39.8227L181.466 39.4056Z" fill="white"/>
<path d="M97.9482 49.1234C98.4693 49.0198 98.793 48.4395 98.6712 47.8273C98.5494 47.2151 98.0283 46.8029 97.5072 46.9065C96.9861 47.0102 96.6624 47.5904 96.7842 48.2026C96.906 48.8148 97.4271 49.2271 97.9482 49.1234Z" fill="white"/>
<path d="M98.4268 51.5299C98.711 51.4734 98.8662 51.0495 98.7734 50.583C98.6807 50.1166 98.375 49.7843 98.0908 49.8409C97.8066 49.8974 97.6514 50.3213 97.7442 50.7878C97.8369 51.2542 98.1426 51.5865 98.4268 51.5299Z" fill="white"/>
<path d="M158.029 6.21356C157.896 7.53249 157.456 8.80194 156.744 9.92024C155.859 11.5024 154.816 12.9901 153.629 14.3602C152.401 15.7965 150.979 17.0553 149.404 18.1005C148.176 19.039 146.696 19.5894 145.153 19.6814C143.059 19.6814 141.554 18.3225 140.639 15.6047C140.389 14.8985 140.264 14.1541 140.269 13.4049C140.269 10.5795 142.469 8.02318 145.409 6.57683C148.201 5.16776 151.27 4.39141 154.396 4.30304C155.903 4.30304 156.932 4.52504 157.517 4.97576C157.69 5.1303 157.826 5.32187 157.915 5.5362C158.003 5.75052 158.042 5.98206 158.029 6.21356ZM142.913 15.7527C143.316 15.7527 143.646 14.9118 143.646 13.7009C143.646 13.5126 143.606 13.1829 143.572 12.7053C143.424 11.6424 143.242 11.1311 143.02 11.1311C142.798 11.1311 142.657 11.4204 142.435 12.046C142.266 12.536 142.142 13.0404 142.065 13.5529C142.213 15.0195 142.509 15.7527 142.913 15.7527ZM144.709 10.4719C144.709 11.8173 145.59 13.5529 145.886 13.2569L146.559 12.5842C146.889 12.2142 147.037 11.9922 146.996 11.9115C146.263 10.3373 146.707 9.12644 146.115 8.90444C145.915 8.89979 145.716 8.93851 145.533 9.01793C145.349 9.09735 145.185 9.21559 145.051 9.36453C144.918 9.51346 144.818 9.68956 144.759 9.88071C144.7 10.0719 144.683 10.2735 144.709 10.4719ZM154.948 7.781C154.84 7.781 154.584 8.003 154.181 8.45372C153.918 8.78335 152.344 10.2095 149.519 12.7457L145.039 16.7416C144.857 16.93 144.783 17.0376 144.783 17.1116C144.783 17.1856 144.817 17.1856 144.931 17.1856C145.442 17.1856 146.471 16.782 148.052 15.9344C149.766 14.9994 151.366 13.8708 152.822 12.5708C154.396 11.1379 155.277 9.87988 155.392 8.64208C155.244 8.07699 155.096 7.75409 154.948 7.75409V7.781ZM152.93 6.60374L152.6 6.67774C149.149 7.485 147.575 8.21826 147.83 8.88426C148.086 9.55025 148.194 10.9361 148.638 10.7881C148.927 10.7881 149.478 10.3104 150.286 9.39552C151.167 8.33263 153.374 6.8661 153.226 6.70465C153.226 6.63065 153.111 6.59701 152.856 6.63065L152.93 6.60374Z" fill="white"/>
</svg>
